<?xml version="1.0" encoding="UTF-8"?>
<svg id="Layer_2" data-name="Layer 2" xmlns="http://www.w3.org/2000/svg" viewBox="0 0 107.19 112.3">
  <defs>
    <style>
      .cls-1 {
        fill: #f2f2f2;
      }
    </style>
  </defs>
  <g id="Layer_1-2" data-name="Layer 1">
    <g>
      <path class="cls-1" d="m98.6,65.33c0,12.34,0,24.68,0,37.02,0,1.11,0,1.12,1.14,1.12,1.76,0,3.53,0,5.29.02,1.44.02,2.08.61,2.12,2.06.05,1.6.05,3.2.02,4.79-.02,1.15-.57,1.68-1.68,1.87-1.27.22-2.53-.03-3.79-.03-28.48.01-56.96.01-85.43.01-3.66,0-7.33,0-10.99,0-1.18,0-2.36.21-3.54.02-1.15-.19-1.66-.69-1.69-1.86-.04-1.68-.04-3.36,0-5.04.03-1.21.67-1.81,1.89-1.83,1.84-.03,3.69,0,5.54,0,1.3,0,1.3,0,1.3-1.27,0-16.11.02-32.23-.03-48.34,0-1.6.51-2.51,1.99-3.17,6.01-2.68,11.96-5.48,17.96-8.19.79-.36,1.08-.76,1.08-1.64-.05-5.18.03-10.36-.06-15.53-.03-1.59.57-2.55,1.88-3.35,5.12-3.13,10.21-6.32,15.31-9.48,6.32-3.92,12.63-7.84,18.95-11.75.28-.17.56-.35.86-.49,1.44-.68,2.71.06,2.78,1.65.04.88.02,1.76.02,2.64,0,3.14,0,6.28-.01,9.42,0,.96.04,1,.91.71.94-.31,1.9-.55,2.88-.71.58-.09.76-.36.76-.93-.02-3.2-.01-6.39,0-9.59,0-1.2.23-1.44,1.45-1.46,1.02-.02,2.04,0,3.06,0,.67,0,1.03.31,1.12.96.03.27.07.55.07.82-.01,3.14-.02,6.28-.06,9.42,0,.58.3.68.75.76,2.27.41,4.43,1.14,6.4,2.34,3.42,2.07,5.62,5.05,6.52,8.95.12.52.37.74.91.73.88-.03,1.76-.04,2.64,0,1.01.05,1.62.66,1.69,1.68.04.52.02,1.05.02,1.57,0,12.04,0,24.07,0,36.11h0Zm-39.99,1.03c0,12.01,0,24.01,0,36.02,0,.62-.03,1.11.87,1.11,11.48-.02,22.96-.01,34.45-.02,1.04,0,1.11-.09,1.11-1.15,0-23.93,0-47.86,0-71.79,0-1.33-.01-1.33-1.38-1.33-11.21,0-22.41,0-33.62,0-1.41,0-1.42,0-1.42,1.39,0,11.92,0,23.85,0,35.77Zm-14.78,5.1h0c0-8.21,0-16.42,0-24.62,0-2.18,0-4.35,0-6.53,0-.85-.15-.93-.93-.61-.13.05-.25.11-.38.17-9.8,4.45-19.6,8.91-29.4,13.34-.6.27-.8.62-.8,1.25.01,16.03.02,32.06,0,48.09,0,.74.26.94.97.94,9.78-.02,19.55-.01,29.33-.01,1.18,0,1.22-.05,1.22-1.2,0-10.27,0-20.55,0-30.82Zm11.22-6.19c0-12.18,0-24.35,0-36.53,0-.33,0-.66.01-.99.08-1.16.69-1.75,1.85-1.78.83-.02,1.65-.02,2.48,0,.44,0,.7-.12.8-.61.69-3.36,2.49-6.02,5.19-8.09.38-.29.57-.63.57-1.12-.01-3.53,0-7.05-.02-10.58,0-.82-.13-.89-.85-.44-1.17.72-2.32,1.48-3.49,2.21-9.17,5.69-18.35,11.38-27.53,17.05-.56.35-.8.74-.79,1.39.03,2.26.03,4.52,0,6.78-.03,2.39.12,4.79-.07,7.18-.05.68.29.6.71.4,1.95-.9,3.9-1.81,5.85-2.7,1.65-.76,3.29-1.54,4.97-2.24,1.21-.5,2.33.03,2.57,1.12.08.37.06.77.06,1.15,0,11.21,0,22.42,0,33.63,0,10.41,0,20.82,0,31.24,0,1.13,0,1.13,1.08,1.13,1.79,0,3.58,0,5.37,0,1.21,0,1.22-.03,1.22-1.27,0-12.31,0-24.63,0-36.94Zm-1.44,43.66c16.22,0,32.44,0,48.65,0,1.43,0,1.46-.08,1.29-1.5-.1-.88-.7-.69-1.21-.69-32.46,0-64.93,0-97.39,0-.28,0-.55,0-.83.02-.29.01-.44.18-.51.45-.35,1.24,0,1.73,1.26,1.73,16.25,0,32.49,0,48.74,0Zm23.24-82.97c4.07,0,8.14-.01,12.21.01.72,0,.92-.18.71-.92-.65-2.31-2.14-4-3.99-5.41-3.71-2.83-7.98-3.18-12.34-2.41-4.41.78-7.72,3.22-9.47,7.48-.45,1.1-.34,1.24.83,1.24,4.02,0,8.03,0,12.05,0Zm-.74-17.17h0c0,1.38,0,2.75,0,4.13,0,.45.01.82.63.82.56,0,.79-.2.79-.78-.02-2.75-.02-5.51,0-8.26,0-.57-.22-.77-.79-.78-.63,0-.63.38-.63.82,0,1.35,0,2.7,0,4.05Z"/>
      <path class="cls-1" d="m77.25,86.57c-3.94,0-7.88,0-11.81,0-1.72,0-2.3-.58-2.31-2.27,0-1.46-.01-2.92,0-4.38.02-1.39.64-2.04,2.03-2.05,8.04-.02,16.08-.02,24.12,0,1.38,0,2.04.73,2.05,2.13,0,1.51,0,3.03,0,4.54,0,1.38-.64,2.02-2.02,2.02-4.02.01-8.04,0-12.06,0Zm-.04-3.26s0-.01,0-.02c3.25,0,6.5,0,9.75,0,.3,0,.61.06.76-.32.39-1.01-.05-1.73-1.1-1.74-6.42-.02-12.83-.03-19.25-.05-.22,0-.5-.02-.58.21-.2.53-.19,1.1-.03,1.62.14.44.61.29.94.29,3.17,0,6.33,0,9.5,0Z"/>
      <path class="cls-1" d="m77.23,67.28c3.91,0,7.82,0,11.72,0,1.78,0,2.38.6,2.38,2.37,0,1.43,0,2.86,0,4.29,0,1.22-.45,1.75-1.67,1.95-.38.06-.77.07-1.15.07-7.51,0-15.03,0-22.54,0-.25,0-.5,0-.74-.01-1.56-.12-2.1-.7-2.1-2.26,0-1.4,0-2.81,0-4.21.01-1.59.62-2.2,2.2-2.2,3.96,0,7.93,0,11.89,0Zm0,3.25c-3.19,0-6.38.02-9.57-.02-.77,0-1,.23-.98.99.01.73.13,1.09.99,1.09,6.38-.03,12.76-.03,19.14,0,.67,0,1.03-.11.98-.9-.04-.7-.02-1.19-.99-1.17-3.19.06-6.38.02-9.57.02Z"/>
      <path class="cls-1" d="m77.06,43.92c-3.91,0-7.82,0-11.73,0-1.61,0-2.19-.58-2.2-2.19,0-1.38,0-2.75,0-4.13.01-1.7.64-2.34,2.36-2.36,1.79-.03,3.58-.01,5.37-.01,5.84,0,11.68,0,17.51,0,.47,0,.94,0,1.4.08.96.17,1.52.79,1.54,1.76.03,1.68.04,3.36,0,5.04-.03,1.18-.78,1.8-2.12,1.8-3.22.01-6.44,0-9.67,0-.83,0-1.65,0-2.48,0Zm.23-5.35h0c-3.22,0-6.44,0-9.66.01-.29,0-.69-.11-.83.21-.22.48-.17,1.04-.05,1.54.11.47.58.32.92.32,4.26.01,8.53.01,12.79.01,2.17,0,4.35-.02,6.52,0,1.1,0,.7-.81.79-1.35.1-.65-.23-.76-.82-.76-3.22.03-6.44.01-9.66.01Z"/>
      <path class="cls-1" d="m77.11,54.67c-3.8,0-7.6,0-11.39,0-2.14,0-2.58-.43-2.58-2.54,0-1.35-.01-2.7,0-4.05.02-1.31.49-1.84,1.78-2.02.41-.06.82-.07,1.23-.07,7.4,0,14.81,0,22.21-.01.25,0,.5,0,.74.01,1.66.11,2.23.73,2.23,2.4,0,1.27,0,2.53,0,3.8,0,1.97-.5,2.47-2.51,2.47-3.91,0-7.82,0-11.72,0h0Zm.04-5.31h0c-3.17,0-6.33.02-9.5-.02-.8-.01-.97.28-.97,1.01,0,.74.14,1.09.99,1.08,6.39-.03,12.77-.02,19.16-.01.59,0,1.01-.04.97-.82-.05-1.2-.02-1.23-.99-1.23-3.22,0-6.44,0-9.66,0Z"/>
      <path class="cls-1" d="m77.26,65.24c-3.91,0-7.82,0-11.73,0-1.89,0-2.39-.52-2.4-2.41,0-1.32,0-2.64,0-3.97,0-1.7.58-2.3,2.28-2.31,4.08-.01,8.15,0,12.23,0,3.75,0,7.49,0,11.24,0,.61,0,1.22.05,1.73.43.54.39.73.94.73,1.58,0,1.54,0,3.08,0,4.63-.01,1.42-.64,2.05-2.09,2.06-3.99.01-7.99,0-11.98,0Zm0-3.26c3.22,0,6.44,0,9.66,0,.32,0,.8.11.88-.26.11-.55.13-1.17-.02-1.69-.12-.41-.68-.23-1.05-.23-6.35,0-12.71,0-19.06-.02-.85,0-1,.34-1,1.08,0,.75.1,1.16,1.02,1.15,3.19-.05,6.38-.02,9.58-.02Z"/>
      <path class="cls-1" d="m20.12,66.25c1.52.29,1.79.59,1.81,2.15,0,.88-.17,1.81.05,2.63.22.78-1,1.13-.35,1.9.52.61.26,1.38.29,2.08.04.71.01,1.43,0,2.15,0,1.09-.1,1.16-1.2,1.36-.55.1-1.15-.07-1.74.24.31.4.69.26,1.01.26,1.89.03,1.93.07,1.93,1.98,0,.8,0,1.6,0,2.4,0,.57-.05,1.09-.62,1.42-.44.26-.09.58.09.73.49.41.54.92.53,1.49-.01.99,0,1.98,0,2.97,0,.51-.07.97-.63,1.23-.4.18-.37.44.02.64.47.25.62.66.61,1.17-.01,1.18-.02,2.37,0,3.55.01.66-.3.95-.91,1.04-1.18.17-2.36.14-3.54.07-.76-.05-1.14-.44-1.12-1.23.02-1.16,0-2.31,0-3.47,0-.5.13-.91.59-1.19.3-.19.61-.44-.03-.65-.49-.16-.53-.62-.54-1.02-.03-1.24-.02-2.48-.02-3.72,0-.64.36-.98.95-1.04.57-.06,1.15-.05,1.73-.06.44,0,.87,0,1.41-.31-.94-.22-1.75-.09-2.55-.11-1.33-.03-1.53-.21-1.55-1.54-.01-.99.02-1.98-.02-2.97-.03-.81.22-1.35,1.12-1.38.11,0,.22-.04.25-.2-.04-.05-.07-.16-.13-.17-1.2-.19-1.33-1.03-1.24-2.02.12-1.36-.29-2.76.36-4.07-.6-1.25-.27-2.59-.35-3.89-.02-.33,0-.66.02-.99.02-.59.34-.99.81-1.3-.38-.33-.82-.6-.81-1.22.02-1.29,0-2.59,0-3.88,0-.65.4-.84,1.03-.87-.94-.15-1.02-.81-1.03-1.48-.02-1.16,0-2.31-.01-3.47,0-.72.36-1.07,1.06-1.07,1.13,0,2.26,0,3.39.02.74.02,1.16.36,1.12,1.19-.05,1.1-.02,2.2-.01,3.31,0,.59-.22,1.06-.67,1.44.36.37.7.72.67,1.32-.04,1.1,0,2.2,0,3.3,0,1.08-.06,1.14-1.16,1.23-.22.02-.43.03-.65.05Zm.03-2.96c0-1.13-.04-1.15-1.04-1.19-.66-.03-1.02.11-.99.89.04,1.39.15,1.63,1.02,1.64.91,0,1.01-.13,1.02-1.34Zm-1.91-6.01c0,1.24.01,1.25.94,1.25.87,0,.96-.12.96-1.2,0-1.06-.14-1.24-.95-1.23-.88,0-.96.1-.95,1.18Zm1.81,18.43c-.02-.3-.02-.6-.06-.9-.05-.44-.39-.49-.73-.46-.35.03-.86-.18-.97.34-.11.55-.09,1.14-.1,1.71,0,.19.14.34.34.42.85.32,1.57-.2,1.52-1.1Zm0,12.64c-.11-.31.24-.9-.39-1.12-.88-.32-1.41.07-1.42,1.01,0,.27,0,.55,0,.82,0,.27.1.5.41.52,1.11.07,1.66.13,1.39-1.23Zm-.03-6.32c0-1.09,0-1.11-.35-1.23-.89-.32-1.41.04-1.42.99,0,.19.01.38,0,.57-.05.6.21.83.81.82.92-.02.97-.05.96-1.15Zm0-12.51c.04-.65.07-1.18-.89-1.19-.98,0-.89.56-.89,1.18,0,.08,0,.16,0,.25,0,.92.15,1.02,1.06,1,.98-.02.64-.74.72-1.25Zm-1.77,25.27c0,1.09.06,1.23.64,1.23.95,0,1.17-.18,1.14-1.05-.02-.6.26-1.42-.84-1.41-.8,0-.94.17-.94,1.23Z"/>
      <path class="cls-1" d="m35.22,60.39c-.78-.09-.98-.53-1.05-1.16-.14-1.21-.13-2.42-.05-3.63.06-.95.36-1.19,1.31-1.21,1.02-.02,2.04-.03,3.06-.02.91,0,1.23.29,1.25,1.17.03,1.1.14,2.23-.04,3.3-.18,1.02-.26,1.93,0,2.97.24.99.08,2.08.04,3.13-.04,1.03-.28,1.25-1.3,1.28-.24,0-.48,0-.73,0,.03.23.15.22.25.22,1.48.12,1.75.39,1.78,1.86.02.99.14,2.01-.06,2.96-.18.88-.17,1.64,0,2.52.22,1.17.07,2.41.06,3.62,0,.68-.37,1.02-1.07,1.11-.58.07-1.19-.03-1.87.22.49.45.97.27,1.39.28,1.3.03,1.54.24,1.56,1.55.02.99.03,1.98-.02,2.97-.05,1.07-.37,1.35-1.43,1.37-.99.01-1.98,0-2.97,0-.74,0-1.16-.34-1.18-1.07-.04-1.24-.05-2.48-.03-3.71,0-.63.35-1.02,1.02-1.08.18-.01.4.01.49-.22,0-.03-.01-.08-.02-.08-1.48-.25-1.63-1.32-1.51-2.52.12-1.21-.33-2.49.45-3.62.04-.06,0-.21-.04-.3-.77-1.63-.37-3.33-.27-5.01.01-.25.16-.46.35-.64.12-.11.29-.29.13-.42-.85-.71-.41-1.7-.57-2.56-.12-.61-.04-1.26-.02-1.89.02-.7.15-1.35,1.13-1.4Zm2.63,2.94c-.11-.36.25-.92-.34-1.18-.93-.4-1.56.04-1.55,1.06,0,.19.02.38,0,.57-.05.64.23.87.86.86.99-.02,1.03-.03,1.03-1.31Zm-1.88,18.74c.14.27-.26.82.33,1.06.91.38,1.54-.06,1.55-1.04,0-.17-.01-.33,0-.49.05-.59-.19-.84-.8-.84-1.05,0-1.06-.02-1.07,1.31Zm0-24.74c.12.35-.26.93.37,1.16.96.35,1.5-.04,1.5-1.07,0-.19,0-.38,0-.58.02-.47-.18-.69-.67-.73-1.09-.08-1.21.02-1.2,1.21Zm.01,18.35c.08.36-.29,1.12.67,1.14.99.02,1.18-.17,1.19-1.1,0-1.26-.08-1.34-.94-1.4-.99-.07-.96.55-.92,1.36Zm-.01-6.17c.02.61-.19,1.3.83,1.25.95-.05,1.04-.1,1.04-1.13,0-1.2-.07-1.23-1.05-1.3-1.06-.08-.76.66-.82,1.18Z"/>
      <path class="cls-1" d="m29.9,72.56c.78.27.88.84.9,1.39.04,1.13.03,2.26.03,3.38,0,.75-.35,1.14-1.15,1.2-1.07.08-2.15.07-3.22.04-.88-.03-1.17-.37-1.19-1.24-.02-1.18-.28-2.44.02-3.53.32-1.16-.09-2.19-.03-3.28.05-.8.03-1.6,0-2.39-.02-.7.14-1.3.8-1.68-.33-.47-.88-.77-.81-1.53.1-1.01.02-2.03.02-3.05,0-.59-.01-1.18.84-1.44-.76-.41-.84-1-.84-1.62,0-1.07.01-2.15,0-3.22-.01-.8.39-1.17,1.15-1.18,1.13-.01,2.26-.01,3.38,0,.63,0,.99.34,1,.96.02,1.27.18,2.56-.06,3.78-.16.85-.14,1.55,0,2.39.21,1.17.05,2.41.05,3.62,0,.05,0,.13-.02.16-.73.77-.26,1.5-.07,2.34.28,1.28.13,2.63.08,3.95-.02.47-.34.73-.89.96Zm-.95-9.24q-.02-1.22-.97-1.21c-.93,0-.94.02-.94,1.26,0,.08.01.17,0,.25-.11.79.22,1.08,1.02,1.03.88-.07.92-.07.89-1.32Zm-.02-5.94c0-1.22-.04-1.28-.93-1.27-.87,0-.95.11-.95,1.3,0,.11,0,.22,0,.33-.04.55.19.79.76.79,1.09,0,1.12,0,1.12-1.15Zm-.01,12.06c-.08-.29.23-.83-.27-1.02-.45-.16-1.09-.3-1.4.08-.43.53-.24,1.27-.13,1.9.08.46.57.29.91.33,1.02.13.93-.57.9-1.3Zm0,6.27c0-.75.17-1.46-.88-1.39-.85.06-.96.18-.99,1.38-.02.71.22,1.01,1,1.04.97.03.91-.54.88-1.03Z"/>
      <path class="cls-1" d="m38.02,91.49c.05.11.05.15.07.15q1.66.5,1.66,2.31c0,.83,0,1.65,0,2.48,0,.74-.31,1.18-1.11,1.26-1.15.11-2.31.09-3.46.02-.7-.04-1.07-.44-1.09-1.1-.03-1.21-.04-2.42,0-3.63.01-.44.14-.86.6-1.1.34-.17.48-.45.03-.65-.54-.24-.6-.71-.61-1.16-.04-1.15-.03-2.31-.02-3.47,0-.76.39-1.16,1.16-1.2.96-.05,1.92-.14,2.88-.16.86-.02,1.49.53,1.54,1.39.07,1.21.04,2.42.03,3.63,0,.57-.33.9-.89,1.02-.25.06-.55,0-.8.22Zm-.18-3.1c-.11-.37.27-.99-.47-1.17-1.03-.26-1.41.03-1.41,1.09,0,.25,0,.49,0,.74,0,.38.21.51.57.55,1.12.13,1.3-.02,1.3-1.21Zm-1.89,6.34c.11.52-.24,1.27.73,1.27,1.02,0,1.16-.16,1.16-1.2,0-1.11-.11-1.22-1.2-1.23-.96-.02-.55.73-.69,1.17Z"/>
      <path class="cls-1" d="m29.49,91.66c1.23.46,1.32.59,1.33,1.83,0,.94.02,1.87,0,2.81-.01,1.06-.22,1.33-1.29,1.41-1.04.07-2.09.07-3.13.03-.87-.04-1.13-.38-1.14-1.28,0-1.1.01-2.2,0-3.3-.01-.64.15-1.14.81-1.37.16-.05.33-.11.29-.33-.03-.15-.16-.21-.3-.24-.69-.11-.77-.63-.77-1.17-.01-1.16,0-2.31-.01-3.47,0-.74.37-1.13,1.08-1.2,1.04-.11,2.09-.05,3.13-.09.66-.03,1.27.42,1.29,1.23.03,1.24.01,2.48.02,3.71,0,.85-.77,1.02-1.32,1.44Zm-.56-3.28c-.1-.34.23-.87-.31-1.13-.86-.41-1.56.05-1.57,1.01,0,.25,0,.5,0,.74,0,.42.22.57.62.6,1.16.1,1.27,0,1.26-1.22Zm0,6.49c0-1.28-.04-1.32-1.02-1.35-1.13-.03-.74.87-.84,1.42-.12.68.2.96.93.99.99.04.99-.52.93-1.06Z"/>
      <path class="cls-1" d="m25.29,81.93c0-.6,0-1.21,0-1.81,0-.67.31-1.05.98-1.06,1.21-.02,2.41-.02,3.62-.01.62,0,.9.39.91.95.02,1.29.02,2.58,0,3.87-.02.63-.36,1.02-1.04,1.02-1.13,0-2.25.03-3.38.01-.72-.01-1.1-.4-1.09-1.15.01-.6,0-1.21,0-1.81h0Zm3.65,0c-.09-.33.21-.85-.24-1.08-.41-.21-.92-.18-1.36-.02-.39.14-.27.55-.28.86-.01.27,0,.55,0,.82,0,.45.21.61.65.64,1.15.08,1.25,0,1.23-1.23Z"/>
    </g>
  </g>
</svg>