<?xml version="1.0" encoding="UTF-8"?>
<svg id="Layer_2" data-name="Layer 2" xmlns="http://www.w3.org/2000/svg" viewBox="0 0 124.27 120.49">
  <defs>
    <style>
      .cls-1 {
        fill: #f2f2f2;
      }
    </style>
  </defs>
  <g id="Layer_1-2" data-name="Layer 1">
    <g>
      <path class="cls-1" d="m76.94,89.27c-.46-3.38-.76-6.73-.61-10.12.27-5.85,2.06-11.17,5.27-16.05,1.59-2.42,3.44-4.72,4.37-7.51.7-2.08,1.2-4.24,1.72-6.38.68-2.77,1.28-5.56,1.94-8.33.72-2.99,2.51-4.96,5.55-5.68.67-.16.77-.39.59-1.07-1.92-7.19-3.79-14.39-5.67-21.58-.34-1.29-.76-2.59-.9-3.91-.43-4.13,2.1-7.51,6.16-8.39,2.02-.43,4-.33,5.9.52,1.78.8,3.08,2.09,3.86,3.86,4.47,10.17,8.99,20.32,13.36,30.53,2.15,5.01,3.81,10.21,5.2,15.49.89,3.38.69,6.61-.39,9.94-1.55,4.77-3.73,9.24-5.9,13.73-1.9,3.94-3.63,7.95-4.54,12.25-.8,3.82-1.27,7.69-1.16,11.61.01.46.22.59.59.69,1.46.39,2.92.79,4.38,1.19.29.08.57.17.85.28,1.5.59,2.13,1.78,1.72,3.32-.93,3.5-1.88,6.99-2.82,10.49-.38,1.41-.73,2.84-1.15,4.24-.5,1.68-1.81,2.44-3.51,1.99-6-1.58-11.98-3.19-17.97-4.79-8.7-2.33-17.39-4.65-26.09-6.98-.29-.08-.57-.16-.85-.27-1.39-.54-2.14-1.85-1.77-3.29,1.28-4.94,2.57-9.88,3.91-14.81.47-1.72,1.92-2.43,3.67-1.96,1.34.36,2.68.71,4.03,1.06.04.01.09-.02.22-.06Zm29.18,7.93c0-.43-.01-.7,0-.97.09-1.64.11-3.28.28-4.91.67-6.28,2.66-12.19,5.21-17.92,1.94-4.37,3.92-8.73,5.87-13.09,1.11-2.47,1.41-4.98.88-7.68-.83-4.21-2.28-8.23-3.87-12.17-2.76-6.82-5.68-13.58-8.6-20.34-1.89-4.39-3.92-8.73-5.81-13.13-.74-1.72-3.97-1.91-5.02-.38-.22.32-.35.8-.32,1.19.04.71.19,1.42.37,2.12,2.21,8.54,4.43,17.08,6.69,25.61.17.64.58,1.26,1.02,1.76,1.84,2.06,2.68,4.38,2.09,7.13-1.23,5.75-2.47,11.49-3.71,17.24-.57,2.67-1.1,5.34-1.72,8-.36,1.53-1.75,2.28-3.34,1.95-1.39-.29-2.33-1.68-2.11-3.14.1-.64.25-1.27.38-1.9,1.34-6.18,2.69-12.35,4.04-18.53.36-1.65.77-3.29,1.03-4.95.23-1.46-.5-2.35-1.91-2.59-1.34-.23-2.24.39-2.57,1.83-.7,2.99-1.39,5.99-2.07,8.99-.68,3.03-1.28,6.09-2.87,8.81-1.25,2.14-2.64,4.2-3.95,6.31-2.25,3.64-3.82,7.49-3.95,11.85-.1,3.53-.02,7.06.47,10.56.38,2.67-.14,1.99,2.38,2.74,1.64.49,3.31.86,4.95,1.37,1.46.45,2.26,1.73,2.05,3.06-.21,1.31-1.31,2.32-2.69,2.34-.65,0-1.32-.17-1.96-.35-4.33-1.17-8.66-2.36-12.99-3.56-.51-.14-.74-.03-.88.53-.66,2.59-1.35,5.18-2.09,7.76-.36,1.27-.21,1.07.75,1.33,4.85,1.32,9.72,2.62,14.58,3.92,6.13,1.64,12.27,3.28,18.4,4.92,1.81.48,3.63.97,5.47,1.46.87-3.21,1.73-6.35,2.59-9.51-.15-.06-.26-.12-.38-.15-3.21-.85-6.42-1.7-9.64-2.55-1.58-.42-3.18-.79-4.73-1.29-1.42-.46-2.13-1.82-1.81-3.17.34-1.4,1.61-2.3,3.07-2.12.64.08,1.26.26,1.88.42,1.46.38,2.91.78,4.52,1.21Z"/>
      <path class="cls-1" d="m47.57,89.41c1.39-.38,2.62-.77,3.87-1.05.66-.15,1.39-.24,2.05-.13,1.18.21,1.74,1.13,2.03,2.23.74,2.86,1.48,5.71,2.23,8.56.5,1.92,1.04,3.83,1.53,5.75.46,1.81-.2,3.11-2,3.63-2.81.82-5.64,1.55-8.47,2.31-10.76,2.88-21.51,5.76-32.27,8.63-1.27.34-2.54.69-3.81,1-1.74.42-3.06-.3-3.57-2.03-.57-1.93-1.05-3.88-1.57-5.82-.79-2.95-1.61-5.88-2.36-8.84-.44-1.74.28-2.96,2.02-3.48,1.78-.53,3.59-.99,5.4-1.49,0-1.38.03-2.73,0-4.09-.15-6.87-2.31-13.19-5.17-19.33-1.68-3.62-3.43-7.22-4.94-10.91-.96-2.33-1.63-4.79-2.27-7.23-.63-2.41,0-4.8.62-7.12,1.77-6.6,4.11-13,6.84-19.26,3.69-8.48,7.52-16.9,11.24-25.37,1.29-2.93,3.38-4.83,6.59-5.28,6.63-.91,10.91,4.14,9.48,9.77-1.7,6.68-3.47,13.34-5.22,20.01-.35,1.34-.7,2.69-1.06,4.03-.29,1.09-.46.95.7,1.27,2.79.78,4.62,2.52,5.28,5.39.38,1.62.73,3.24,1.09,4.86.52,2.3,1.08,4.59,1.58,6.89.65,2.96,2.05,5.57,3.7,8.07,1.62,2.44,3.28,4.85,4.43,7.57,2.02,4.78,2.75,9.77,2.58,14.92-.06,1.78-.32,3.56-.48,5.34-.03.34-.04.68-.07,1.17Zm3.21,4.95c-.31.05-.6.08-.88.15-2.4.63-4.79,1.28-7.19,1.91-2.42.64-4.84,1.3-7.27,1.87-1.12.26-2.13-.31-2.7-1.29-.55-.94-.56-2.21.21-2.98.55-.55,1.31-.99,2.05-1.23,1.96-.62,3.96-1.11,5.95-1.63.43-.11.62-.32.65-.76.23-3.34.55-6.68.67-10.02.08-2.12.04-4.26-.56-6.35-1.15-4.04-3.17-7.64-5.53-11.06-1.76-2.55-3.19-5.25-3.89-8.3-.36-1.57-.73-3.14-1.09-4.71-.6-2.58-1.2-5.17-1.79-7.75-.18-.8-.54-1.42-1.42-1.63-2.09-.51-3.47.87-3,3.07,1.35,6.28,2.72,12.55,4.07,18.83.45,2.08.95,4.16,1.29,6.26.28,1.75-1.38,3.21-3.14,2.92-1.46-.24-2.08-1.21-2.36-2.52-1.76-8.14-3.49-16.29-5.28-24.43-.69-3.13.09-5.73,2.46-7.88.24-.22.41-.57.49-.89,1.8-6.91,3.59-13.82,5.37-20.73.58-2.25,1.19-4.51,1.68-6.78.3-1.38-.32-2.27-1.61-2.68-1.45-.45-2.94.04-3.49,1.18-.28.58-.52,1.18-.78,1.77-4.37,10.02-8.78,20.03-13.11,30.07-1.95,4.54-3.61,9.18-4.51,14.07-.35,1.9-.53,3.78.23,5.64.84,2.07,1.58,4.18,2.47,6.22,1.96,4.47,4.1,8.87,5.96,13.38,1.88,4.56,2.91,9.37,3.37,14.28.15,1.55.2,3.11.3,4.75.28-.06.54-.09.79-.16,1.82-.47,3.63-1.02,5.47-1.41,1.95-.42,3.66,1.53,3.18,3.46-.33,1.35-1.36,1.79-2.54,2.1-4.39,1.15-8.78,2.3-13.17,3.46-.3.08-.59.21-.9.32.74,2.71,1.45,5.34,2.17,7.96.41,1.51.42,1.52,1.93,1.11,7.52-2.03,15.03-4.08,22.55-6.1,4.89-1.31,9.78-2.59,14.67-3.87.58-.15.74-.34.56-.97-.81-2.83-1.55-5.69-2.36-8.67Z"/>
      <path class="cls-1" d="m52.6,32.83c0-1.24,0-2.35,0-3.47,0-1.76-.05-3.53-.03-5.29.03-1.98,1.03-3.1,3.01-3.13,4.42-.06,8.84-.06,13.26,0,1.99.03,2.97,1.13,2.98,3.14.01,2.53,0,5.07-.02,7.6,0,.34,0,.68,0,1.1.38.02.67.05.96.05,2.56,0,5.12,0,7.68,0,2.1,0,3.26,1.17,3.26,3.29,0,4.22,0,8.44,0,12.67,0,2.16-1.14,3.34-3.29,3.35-2.58.02-5.17,0-7.75-.03-.56,0-.84.04-.82.74.05,2.61,0,5.21.02,7.82.02,2.06-1.04,3.22-3.11,3.23-4.35.02-8.69.03-13.04.01-1.95,0-3.1-1.14-3.14-3.11-.04-2.71-.02-5.41-.02-8.12,0-.17-.02-.33-.03-.54-2.37,0-4.7,0-7.03,0-.72,0-1.44.02-2.16-.05-1.56-.14-2.58-1.27-2.58-2.83,0-4.5,0-8.99,0-13.49,0-1.8,1.12-2.93,2.93-2.94,2.66-.02,5.32,0,7.97,0,.29,0,.59,0,.95,0Zm25.43,5.62c-1.33,0-2.57.01-3.81,0-1.81-.02-3.63,0-5.44-.1-1.29-.07-2.24-1.07-2.42-2.35-.07-.49-.07-.99-.07-1.49-.02-2.38-.05-4.77-.03-7.15,0-.58-.14-.78-.75-.77-2.21.03-4.42.01-6.63-.02-.53,0-.75.1-.74.69.03,2.48-.02,4.97,0,7.45.04,2.63-.96,3.71-3.57,3.73-2.48.02-4.97.01-7.45.02-.24,0-.48.02-.77.03,0,2.49.03,4.9-.02,7.31-.01.63.2.74.76.74,2.58-.03,5.17-.04,7.75-.03,2.34.01,3.29.99,3.29,3.32,0,2.61.02,5.22,0,7.82,0,.53.15.69.68.69,2.29-.02,4.57-.02,6.86,0,.49,0,.63-.15.62-.65-.02-2.66,0-5.31,0-7.97,0-2.06,1.05-3.16,3.09-3.19,2.36-.03,4.72-.02,7.08-.03.51,0,1.02,0,1.56,0v-8.06Z"/>
    </g>
  </g>
</svg>