<?xml version="1.0" encoding="UTF-8"?>
<svg id="Layer_2" data-name="Layer 2" xmlns="http://www.w3.org/2000/svg" viewBox="0 0 112.96 119.4">
  <defs>
    <style>
      .cls-1 {
        stroke-width: .25px;
      }

      .cls-1, .cls-2 {
        fill: #f2f2f2;
        stroke: #f2f2f2;
        stroke-miterlimit: 10;
      }

      .cls-2 {
        stroke-width: .75px;
      }
    </style>
  </defs>
  <g id="Layer_1-2" data-name="Layer 1">
    <g>
      <path class="cls-2" d="m112.55,81.32c0,10.71,0,21.42,0,32.13,0,1.04.05,2.08.04,3.12,0,.8-.25,1.05-1.06,1.1-.54.03-1.09.01-1.63.01-5.56,0-11.13,0-16.69-.03-.51,0-.75.11-.73.66.02.38-.2.63-.62.65-.48.01-.95.05-1.43.05-22.57,0-45.15,0-67.72-.01-.5,0-1-.05-1.5-.05-.46,0-.7-.21-.66-.65.05-.58-.25-.66-.74-.65-5.97.02-11.94.02-17.92.02-.18,0-.36,0-.54-.02-.54-.05-.88-.28-.89-.89,0-.72-.09-1.45-.09-2.17,0-22.46,0-44.92,0-67.38,0-2.14,0-2.15,2.16-2.15,10.11,0,20.21-.02,30.32-.01.59,0,.74-.12.73-.75-.05-4.19-.05-8.38-.05-12.56,0-9.89,0-19.79,0-29.68,0-1.63.07-1.68,1.73-1.68,13.97,0,27.93,0,41.9,0,.59,0,1.18.06,1.77.08.34.01.48.17.49.51.01.52.07,1.04.07,1.56,0,13.99.02,27.98,0,41.98,0,.59.28.54.66.54,6.38,0,12.76,0,19.14,0,3.88,0,7.77,0,11.65.02,1.53,0,1.6.11,1.6,1.62,0,11.55,0,23.09,0,34.64h0Zm-34.62-40.71h0c0-12.61,0-25.22.02-37.83,0-.68-.16-.86-.86-.86-13.62.02-27.25.02-40.87.01-1.12,0-1.13,0-1.13,1.08,0,24.9,0,49.8,0,74.7,0,.38,0,.77,0,1.15,0,.33.14.4.42.25.14-.08.28-.15.42-.22,6.65-3.56,13.3-7.12,19.94-10.7.48-.26.85-.26,1.32,0,6.68,3.6,13.37,7.18,20.06,10.76.67.36.68.36.68-.39,0-12.65,0-25.31,0-37.96ZM2.02,81.4c0,11.36,0,22.73-.01,34.09,0,.55.13.73.71.71,1.81-.06,3.63-.06,5.45-.06,3.93,0,7.86,0,11.78,0,.29,0,.64.09.59-.4-.08-.73.37-.9.95-.92,1.22-.03,2.45-.06,3.68-.06,1.49,0,1.49.02,1.53-1.42,0-.05,0-.09,0-.14.05-.85.2-1.05,1.05-1.09,1.2-.06,2.4-.05,3.61-.08,1.13-.02,1.02.21,1.03-1.07,0-6.41,0-12.81.01-19.22,0-.41-.11-.58-.52-.57-1.04.01-2.09.02-3.13,0-.42,0-.59.13-.57.59.04,1.56.03,3.12.03,4.69,0,.98-.14,1.17-1.13,1.19-1.86.03-3.72.02-5.58,0-.82-.01-.95-.2-.95-1.04,0-2.83.03-5.66-.03-8.49-.01-.71.24-1.05.82-1.36,3.92-2.08,7.83-4.19,11.75-6.28.34-.18.49-.38.49-.79-.02-4.03-.03-8.06-.03-12.09,0-6.63,0-13.26,0-19.89,0-1.03,0-1.03-1.02-1.03-9.9,0-19.8,0-29.7-.01-.64,0-.83.12-.83.8.02,11.32.02,22.64.02,33.96Zm109,.07v-33.76q0-1.05-1.02-1.05c-6.7,0-13.4,0-20.1,0-3.27,0-6.54,0-9.81,0-.35,0-.61-.06-.61.5.02,10.78.01,21.55-.01,32.33,0,.54.17.79.64,1.04,3.98,2.12,7.94,4.27,11.92,6.4.35.19.48.42.48.8,0,2.99,0,5.98.01,8.96,0,.63-.27.93-.88.94-1.97,0-3.95,0-5.92,0-.61,0-.88-.29-.87-.93.03-1.61-.01-3.22.03-4.82.01-.54-.16-.7-.67-.7-1,.02-2,0-2.99-.02-.46-.01-.56.18-.55.61.01,6.57.01,13.13,0,19.7,0,.49.17.61.64.59,1.02-.04,2.04-.03,3.06-.03,1.99,0,2.05.03,1.98,2.01-.02.6.14.79.76.76,1.54-.08,3.09-.11,4.63.04.41.04.8.15.77.66-.03.56.23.66.74.66,5.68,0,11.35,0,17.03.04.65,0,.78-.16.78-.76-.02-11.32-.01-22.64-.01-33.96Zm-22.63,5.36s0-.07.01-.11c-2.25-1.21-4.5-2.42-6.75-3.63-8.14-4.37-16.28-8.74-24.42-13.13-.53-.28-.92-.26-1.43.02-9.73,5.25-19.47,10.47-29.2,15.7-.66.35-1.32.7-1.99,1.05.01.03.02.06.04.1h63.75Zm-28.44,14.79h0c0-3.26-.01-6.52.01-9.78,0-.56-.17-.74-.74-.73-1.82.03-3.63.03-5.45.02-.48,0-.69.11-.69.64.02,6.56.02,13.13,0,19.69,0,.5.19.61.65.6,1.82-.02,3.63-.03,5.45,0,.57.01.78-.1.77-.73-.04-3.24-.02-6.47-.02-9.71Zm13.74.06s0,0,0,0c0-3.31,0-6.61,0-9.92,0-.41-.07-.63-.54-.62-1.93.03-3.86.04-5.79.04-.37,0-.5.12-.5.51.01,6.61.01,13.22,0,19.83,0,.44.14.59.59.58,1.86-.05,3.72-.08,5.58-.07.5,0,.66-.13.65-.64-.02-3.24-.01-6.48-.01-9.71Zm-34.33-.07h0c0,3.26,0,6.52,0,9.78,0,.37-.06.71.53.7,1.88-.05,3.77-.06,5.65-.05.5,0,.65-.12.65-.64-.02-6.54-.02-13.08,0-19.62,0-.41-.08-.58-.54-.6-1.84-.09-3.68,0-5.51-.04-.58-.01-.78.15-.77.76.03,3.24.01,6.47.01,9.71Zm8.32-.07h0c0,3.26,0,6.51,0,9.77,0,.53.1.79.71.75.86-.06,1.72-.05,2.58-.02.48.02.68-.1.67-.63-.03-2.65-.01-5.29-.01-7.94,0-3.89,0-7.78,0-11.67,0-.41-.06-.61-.54-.6-.88.02-1.77,0-2.65-.06-.61-.04-.78.17-.77.77.03,3.21.01,6.42.01,9.63Zm13.76.05c0,3.28.01,6.57-.01,9.85,0,.52.17.67.67.65.91-.05,1.82-.07,2.72-.05.45,0,.57-.14.57-.58-.01-6.54-.01-13.09,0-19.63,0-.51-.16-.69-.65-.67-.91.03-1.82.04-2.72.02-.48,0-.59.18-.59.64.02,3.26.01,6.52.01,9.78Zm17.69-.05c0-3.26-.01-6.52.01-9.78,0-.51-.19-.62-.63-.62-.88.01-1.77.03-2.65,0-.52-.02-.64.18-.63.68.03,2.67.03,5.34.02,8.01,0,3.87-.01,7.74-.04,11.61,0,.45.08.67.6.63.79-.06,1.59-.04,2.38-.06q.93-.02.93-.91c0-3.19,0-6.38,0-9.57Zm-41.33.07s.02,0,.02,0c0-3.3,0-6.61,0-9.91,0-.39-.11-.54-.49-.53-.98,0-1.95,0-2.93-.01-.39,0-.5.19-.5.55,0,6.61,0,13.22-.01,19.82,0,.47.19.57.61.55.91-.04,1.82-.06,2.72-.05.45,0,.57-.13.57-.58-.02-3.28-.01-6.56-.01-9.84Zm18.73,15.85h0c10.65,0,21.3,0,31.95,0,.66,0,1.32-.02,1.98,0,.47.02.57-.2.57-.61,0-.64-.44-.51-.81-.51-20.98,0-41.96,0-62.95-.01-1.54,0-3.09,0-4.63,0-.61,0-.81.33-.59.88.16.4.5.25.76.25,11.24,0,22.48,0,33.72,0Zm0-28.96c-9.22,0-18.44,0-27.66-.01-.58,0-.76.16-.7.72.07.64.55.36.83.36,18.32.01,36.65.01,54.97.01.16,0,.32,0,.48,0,.27.02.39-.06.42-.37.05-.55-.1-.73-.69-.72-9.22.02-18.44.01-27.66.01Zm.08,25.12h0c-7.99,0-15.98,0-23.97,0-1.29,0-2.59,0-3.88-.02-.45,0-.57.19-.58.62,0,.43.17.56.56.55.61-.01,1.23-.02,1.84-.02,17.82,0,35.64,0,53.47,0,.41,0,.81.07.83-.58.02-.69-.42-.55-.81-.55-9.15,0-18.3,0-27.45,0Zm29.74-21.33h0c0,1.11.01,2.22,0,3.32,0,.38.12.51.51.51,1.22-.02,2.45-.02,3.67,0,.38,0,.52-.11.52-.5-.01-2.21-.01-4.43,0-6.64,0-.4-.17-.49-.53-.48-1.18.02-2.36.02-3.54,0-.46-.01-.64.12-.63.61.03,1.06.01,2.12.01,3.19Zm-59.64.06s0,0,0,0c0-1.08-.02-2.17,0-3.25.01-.49-.16-.61-.63-.6-1.15.03-2.31.02-3.47,0-.44,0-.59.13-.59.58.01,2.17,0,4.34-.02,6.5,0,.4.11.56.53.55,1.2-.02,2.4-.03,3.6,0,.47.01.57-.17.56-.59-.02-1.06,0-2.12,0-3.18Z"/>
      <path class="cls-2" d="m47.25,30.39c0,1.31,0,2.63,0,3.94,0,.86-.29,1.17-1.13,1.17-1.75,0-3.5,0-5.24,0-.79,0-1.04-.23-1.04-1-.02-2.69-.03-5.39-.01-8.08,0-.93.2-1.12,1.13-1.13,1.66-.02,3.32-.04,4.97,0,1.19.03,1.32.21,1.32,1.37,0,1.25,0,2.49,0,3.74Zm-1.64.07h0c0-1.04-.01-2.08,0-3.12,0-.35-.06-.53-.48-.52-1.09.03-2.18.02-3.27,0-.34,0-.49.1-.49.46.01,2.06.01,4.12,0,6.17,0,.35.13.47.48.47,1.11-.02,2.22-.02,3.33,0,.34,0,.42-.1.41-.42-.02-1.02,0-2.04,0-3.05Z"/>
      <path class="cls-2" d="m65.78,30.36c0-1.33,0-2.67,0-4,0-.78.22-1.06.99-1.07,1.86-.03,3.72,0,5.58,0,.51,0,.81.25.81.79,0,.56.02,1.13.02,1.69,0,2.22.01,4.43,0,6.65,0,.84-.24,1.07-1.04,1.08-1.75.01-3.49.02-5.24,0-.91,0-1.13-.24-1.13-1.14,0-1.33,0-2.67,0-4Zm5.86.03s0,0,0,0c0-.99-.02-1.99,0-2.98.01-.45-.14-.59-.59-.58-1.07.02-2.13.02-3.2,0-.38,0-.46.14-.45.47,0,2.06,0,4.11,0,6.17,0,.36.1.48.46.47,1.09-.02,2.18-.03,3.26,0,.44,0,.53-.15.52-.56-.03-.99-.01-1.99-.01-2.98Z"/>
      <path class="cls-2" d="m47.25,60.07c0,1.29,0,2.58,0,3.87,0,.99-.23,1.21-1.2,1.21-1.77,0-3.54-.03-5.31,0-.64.01-.85-.28-.89-.83-.01-.23-.03-.45-.03-.68,0-2.53.01-5.07,0-7.6,0-.67.29-1.05.95-1.05,1.77-.02,3.54-.04,5.31.01.98.03,1.16.3,1.17,1.27,0,1.27,0,2.53,0,3.8Zm-1.64.01c0-1.04,0-2.08,0-3.12,0-.26.03-.47-.38-.45-1.11.03-2.22.02-3.34,0-.37,0-.52.08-.52.49.02,2.04.02,4.07,0,6.11,0,.4.12.57.54.56,1.07-.03,2.13-.04,3.2-.01.4,0,.5-.13.49-.5-.02-1.02,0-2.04,0-3.06Z"/>
      <path class="cls-2" d="m73.19,60.16c0,1.29.01,2.58,0,3.87-.01.95-.19,1.12-1.11,1.12-1.77,0-3.54,0-5.31-.01-.74,0-.98-.24-.98-.98,0-2.72,0-5.43,0-8.15,0-.64.33-1.01.94-1.02,1.88-.03,3.77-.02,5.65,0,.54,0,.81.34.81.89,0,1.43,0,2.85,0,4.28h.02Zm-5.78-.12c0,1.04.01,2.08,0,3.12,0,.38.12.51.51.5,1.04-.02,2.08-.04,3.12,0,.49.02.62-.16.62-.62-.02-2.01-.01-4.02,0-6.03,0-.37-.16-.46-.49-.46-1.11,0-2.22,0-3.33-.05-.41-.01-.43.19-.43.5,0,1.02,0,2.03,0,3.05Z"/>
      <path class="cls-2" d="m39.82,45.26c0-1.29,0-2.58,0-3.87,0-1.01.24-1.25,1.23-1.25,1.61,0,3.22,0,4.84,0,1.05,0,1.35.29,1.36,1.33.02,2.6.01,5.21,0,7.81,0,.72-.26,1.02-.98,1.03-1.84.03-3.68.02-5.52.02-.61,0-.92-.3-.91-.92,0-1.38,0-2.76,0-4.14,0,0-.02,0-.02,0Zm5.8.01c0-1.02-.01-2.03,0-3.05,0-.37-.1-.52-.49-.52-1.09,0-2.17-.02-3.26-.03-.38,0-.5.15-.49.53.02,2.03.02,4.06,0,6.1,0,.38.12.52.51.52,1.09-.01,2.17-.01,3.26.02.42.01.47-.17.47-.52-.02-1.02,0-2.03,0-3.05Z"/>
      <path class="cls-2" d="m73.2,45.23c0,1.31,0,2.63,0,3.94,0,.97-.2,1.15-1.17,1.15-1.68,0-3.36,0-5.04,0-.99,0-1.21-.22-1.21-1.19,0-2.47,0-4.93,0-7.4,0-.25,0-.5.04-.74.08-.56.34-.88.99-.86,1.75.03,3.5,0,5.24.01.86,0,1.09.22,1.11,1.09.02,1.33,0,2.67,0,4.01.01,0,.03,0,.04,0Zm-5.78,0c0,.99.03,1.99-.01,2.98-.02.53.16.64.65.62,1-.04,1.99-.04,2.99,0,.52.02.65-.18.64-.67-.03-1.94-.05-3.88-.02-5.83,0-.51-.15-.69-.65-.68-1.02.02-2.04.02-3.06,0-.41-.01-.56.11-.55.53.03,1.02,0,2.03,0,3.05Z"/>
      <path class="cls-2" d="m60.2,30.5c0,1.31,0,2.62,0,3.94,0,.79-.27,1.07-1.06,1.07-1.68,0-3.36,0-5.04-.02-1.01-.01-1.22-.21-1.23-1.19-.02-2.62-.03-5.25-.01-7.87,0-.91.21-1.1,1.15-1.12,1.68-.03,3.36-.04,5.04-.03.91,0,1.11.23,1.13,1.15.02,1.36,0,2.71,0,4.07h.02Zm-1.51-.12h0c0-.99-.01-1.99,0-2.98,0-.38-.07-.59-.52-.58-1.11.02-2.22.01-3.33,0-.39,0-.51.14-.5.52.01,2.01,0,4.02-.01,6.04,0,.43.12.61.58.6,1.09-.03,2.18-.06,3.26-.04.44,0,.53-.18.52-.56-.02-.99,0-1.99,0-2.98Z"/>
      <path class="cls-2" d="m60.2,60.09c0,1.31,0,2.62,0,3.93,0,.96-.15,1.12-1.09,1.12-1.77,0-3.54-.02-5.3,0-.59,0-.83-.24-.88-.77-.02-.22-.05-.45-.05-.68,0-2.49-.01-4.97,0-7.46,0-.99.16-1.2,1.12-1.23,1.72-.05,3.45-.05,5.17-.03.79,0,1.03.31,1.04,1.11,0,1.33,0,2.67,0,4h.01Zm-1.5-.04c0-.99-.01-1.99,0-2.98,0-.41-.12-.55-.54-.54-1.09.02-2.18,0-3.26-.03-.4-.01-.57.1-.57.53.02,2.03.02,4.07,0,6.1,0,.42.15.56.55.55,1.09-.02,2.18-.04,3.26-.02.41,0,.56-.12.55-.54-.02-1.02,0-2.03,0-3.05Z"/>
      <path class="cls-2" d="m60.2,45.3c0,1.33,0,2.67,0,4,0,.76-.25,1.01-1.02,1.02-1.7,0-3.4,0-5.1,0-1.01,0-1.2-.19-1.21-1.19-.02-2.6-.02-5.2,0-7.8,0-.98.23-1.18,1.23-1.18,1.63,0,3.26,0,4.9,0,.91,0,1.18.25,1.19,1.16.02,1.33,0,2.67,0,4,0,0,.01,0,.02,0Zm-1.51-.05c0-.99-.02-1.99.01-2.98.01-.42-.14-.57-.53-.57-1.13,0-2.27,0-3.4-.01-.3,0-.44.11-.44.45.01,2.08.01,4.16,0,6.24,0,.35.14.47.49.47,1.13-.01,2.27-.02,3.4,0,.35,0,.47-.11.47-.47-.02-1.04,0-2.08,0-3.12Z"/>
      <path class="cls-1" d="m54.74,14.14c-.41.02-.67-.17-.68-.58-.04-1.18-.36-2.26-1.04-3.23-.28-.4-.15-.72.31-.91.15-.06.28-.16.43-.2.82-.23,1.41-.71,1.93-1.39.67-.89,1.02-.88,1.66,0,.52.72,1.19,1.12,2,1.43.99.38,1.08.66.48,1.5-.51.71-.76,1.44-.74,2.32.02.97-.36,1.23-1.27.96-.83-.25-1.63-.33-2.46-.02-.19.07-.4.08-.6.12Zm3.46-3.61c-.06-.1-.09-.22-.15-.23-.57-.17-.96-.57-1.34-.99-.14-.15-.3-.12-.4.03-.36.52-1.15.66-1.38,1.07-.23.4.43,1.05.5,1.66.02.13,0,.34.16.32.63-.08,1.24-.13,1.86.02.03,0,.1-.03.11-.06.1-.65.3-1.26.65-1.82Z"/>
      <path class="cls-1" d="m66.39,16.91c-.12-.02-.26-.02-.38-.07-.95-.37-1.89-.29-2.85,0-.67.2-1-.03-1.04-.74-.05-1.04-.33-1.97-.92-2.85-.4-.59-.3-.88.39-1.13.97-.34,1.73-.88,2.36-1.71.51-.67.79-.63,1.34.03.62.75,1.32,1.32,2.27,1.63.83.27.91.58.43,1.32-.54.82-.85,1.67-.83,2.66.01.47-.2.83-.77.86Zm-.97-1.76c.28.08.37-.06.36-.32-.02-.47.15-.88.4-1.27.17-.27.13-.48-.17-.58-.45-.15-.77-.45-1.09-.78-.17-.17-.35-.34-.56-.06-.35.47-1,.61-1.31.96-.34.38.45.98.41,1.57,0,.04,0,.09.01.13.03.28.18.39.46.33.49-.1.98-.13,1.47.01Z"/>
      <path class="cls-1" d="m73.13,19.67c-.18-.04-.36-.05-.53-.11-.75-.3-1.49-.24-2.25-.02-1.04.31-1.34.12-1.38-.96-.03-.87-.27-1.61-.76-2.33-.58-.85-.44-1.2.54-1.52.82-.27,1.45-.74,1.99-1.43.61-.79.98-.78,1.53,0,.54.76,1.23,1.21,2.1,1.51.85.29.99.7.46,1.41-.6.81-.79,1.7-.82,2.66-.02.54-.27.85-.87.79Zm-.9-1.75c.25.09.38,0,.4-.27.03-.51.19-.97.47-1.4.17-.25.06-.45-.2-.52-.48-.14-.83-.44-1.15-.81-.16-.19-.34-.32-.53,0-.26.43-.67.67-1.13.83-.27.1-.36.27-.19.52.33.46.24,1.12.54,1.5.36.45,1.05-.1,1.58.11.06.03.13.03.2.05Z"/>
      <path class="cls-1" d="m50.21,16.93c-.11-.02-.23-.02-.33-.06-.97-.38-1.93-.33-2.92-.03-.72.21-1.08-.04-1.06-.77.03-1-.29-1.84-.83-2.66-.49-.74-.41-1.03.41-1.33.93-.34,1.66-.83,2.25-1.63.51-.68.85-.68,1.35-.02.61.81,1.35,1.34,2.31,1.68.75.26.86.6.41,1.23-.59.83-.81,1.73-.86,2.72-.02.45-.15.86-.73.88Zm-1.23-1.8c.41.07.56-.03.57-.28.03-.53.24-1,.48-1.46.12-.23.1-.39-.21-.41-.42-.03-.7-.3-.93-.61-.29-.4-.55-.49-.87-.04-.32.45-1.13.49-1.23.94-.1.44.46.93.46,1.49,0,.29.12.42.41.38.49-.06.99-.1,1.32-.01Z"/>
      <path class="cls-1" d="m43.12,19.65c-.09-.02-.27-.03-.44-.1-.78-.31-1.53-.24-2.32,0-.98.3-1.27.11-1.32-.88-.04-.93-.33-1.74-.85-2.52-.53-.81-.41-1.1.49-1.39.85-.27,1.5-.74,2.06-1.45.63-.82,1-.82,1.58,0,.53.75,1.22,1.16,2.04,1.47.91.34,1.04.71.49,1.46-.54.73-.78,1.49-.78,2.39,0,.78-.28,1.04-.96,1.01Zm-.9-1.75c.38.11.47-.05.48-.33.01-.47.16-.89.42-1.27.19-.28.1-.48-.2-.57-.48-.15-.83-.46-1.15-.81-.12-.13-.31-.32-.44-.09-.31.53-.96.64-1.3,1.02-.44.49.43.98.35,1.57-.01.09.03.18.04.27.03.22.15.32.38.25.49-.15.99-.1,1.42-.03Z"/>
      <path class="cls-2" d="m27.95,60.04c0,1.33.01,2.67,0,4-.01.94-.19,1.1-1.13,1.1-1.75,0-3.49,0-5.24,0-.8,0-1.03-.23-1.03-1,0-2.69,0-5.38,0-8.08,0-.67.31-1.06.96-1.07,1.88-.03,3.77-.02,5.65,0,.55,0,.8.36.79.9,0,1.38,0,2.76,0,4.14h.02Zm-5.77.03c0,.95.03,1.9-.01,2.85-.02.54.09.77.69.73.97-.05,1.95-.04,2.93-.01.48.02.63-.13.62-.61-.02-2.01-.01-4.03,0-6.04,0-.38-.18-.45-.5-.45-1.11,0-2.22-.01-3.34-.04-.36-.01-.41.16-.41.45,0,1.04,0,2.08,0,3.12Z"/>
      <path class="cls-2" d="m27.91,76.27c0,1.36.02,2.71,0,4.07-.01.79-.28,1.08-1.08,1.09-1.72.03-3.45.02-5.17,0-.74-.01-1.1-.35-1.1-1.09-.02-2.74,0-5.47-.01-8.21,0-.59.38-.83.87-.84,1.95-.03,3.9-.03,5.85-.01.5,0,.67.4.67.86,0,1.38,0,2.76,0,4.14,0,0-.01,0-.02,0Zm-1.49.06s0,0-.01,0c0-.99-.03-1.99.01-2.98.02-.48-.18-.6-.59-.6-1.07,0-2.13,0-3.2-.01-.35,0-.47.1-.47.46.01,2.08.01,4.16,0,6.24,0,.36.13.47.47.46,1.09-.02,2.18-.03,3.26-.01.44,0,.52-.19.52-.57-.02-.99,0-1.99,0-2.98Z"/>
      <path class="cls-2" d="m14.97,92.58c0,1.29,0,2.58,0,3.87,0,1-.15,1.21-1.17,1.22-1.77.01-3.54-.03-5.3-.05-.54,0-.79-.28-.81-.78-.03-.63-.04-1.26-.05-1.9,0-2.08,0-4.16,0-6.24,0-.92.22-1.22,1.13-1.25,1.72-.05,3.45-.04,5.17,0,.77.02,1.02.35,1.03,1.14,0,1.33,0,2.67,0,4h.02Zm-5.87-.05c0,1.02,0,2.04,0,3.05,0,.35.06.54.48.53,1.16-.02,2.31-.02,3.47,0,.35,0,.41-.14.41-.44,0-2.06-.01-4.12,0-6.18,0-.37-.13-.46-.47-.45-1.13.02-2.27.02-3.4,0-.39,0-.5.12-.49.5.02,1,0,1.99,0,2.99Z"/>
      <path class="cls-2" d="m14.96,60.09c0,1.33,0,2.67,0,4,0,.86-.19,1.05-1.03,1.05-1.79,0-3.58-.02-5.37,0-.59,0-.83-.25-.88-.78-.02-.2-.05-.4-.05-.61,0-2.53-.01-5.06,0-7.59,0-.89.16-1.12,1.05-1.15,1.77-.06,3.54-.06,5.3-.04.71,0,.96.32.97,1.04.01,1.36,0,2.71,0,4.07h.02Zm-5.85-.01c0,1.02.01,2.03,0,3.05,0,.36.1.55.49.54,1.13-.02,2.27-.03,3.4-.03.35,0,.48-.13.47-.48-.01-2.06-.01-4.11,0-6.17,0-.36-.14-.46-.48-.46-1.11,0-2.22,0-3.33-.04-.41-.01-.56.13-.55.54.02,1.02,0,2.03,0,3.05Z"/>
      <path class="cls-2" d="m14.94,76.24c0,1.31.01,2.63,0,3.94-.01.99-.28,1.26-1.26,1.26-1.61,0-3.22,0-4.83,0-.93,0-1.19-.22-1.2-1.16-.03-2.69-.02-5.39-.03-8.08,0-.63.34-.93.92-.93,1.84-.01,3.68-.02,5.52,0,.65,0,.9.42.89,1.04-.01,1.31,0,2.63,0,3.94h0Zm-5.84.03c0,.99.02,1.99,0,2.98-.02.49.1.7.63.67,1.06-.05,2.13-.05,3.2-.05.39,0,.55-.12.54-.55-.02-2.01-.02-4.02,0-6.04,0-.47-.18-.57-.6-.56-1.09.02-2.18.03-3.26,0-.45-.01-.52.17-.51.56.02.99,0,1.99,0,2.98Z"/>
      <path class="cls-2" d="m85.08,60.02c0-1.33-.01-2.67,0-4,.01-.76.25-1.03,1.02-1.04,1.7-.02,3.4-.03,5.1.02,1.1.03,1.28.27,1.28,1.36,0,2.46,0,4.93,0,7.39,0,1.21-.18,1.38-1.36,1.38-1.7,0-3.4-.03-5.1.01-.67.02-.92-.27-.92-.86-.01-1.42,0-2.85,0-4.27,0,0-.01,0-.02,0Zm5.77.08c0-1.04,0-2.08,0-3.12,0-.24.07-.49-.36-.47-1.13.03-2.27.02-3.4,0-.36,0-.47.11-.47.47.01,2.06.01,4.12,0,6.18,0,.39.15.51.52.51,1.07-.02,2.13-.04,3.2,0,.46.01.52-.17.51-.56-.02-1,0-1.99,0-2.99Z"/>
      <path class="cls-2" d="m85.09,76.37c0-1.36-.02-2.71,0-4.07.01-.81.27-1.04,1.08-1.05,1.68,0,3.36-.01,5.04,0,1.05.01,1.28.25,1.28,1.28,0,2.47,0,4.93,0,7.4,0,1.23-.29,1.5-1.54,1.5-1.52,0-3.04,0-4.56,0-1.04,0-1.25-.2-1.28-1.2-.02-.66-.03-1.31-.04-1.97,0-.63,0-1.27,0-1.9,0,0,0,0,.01,0Zm5.76-.03c0-1.04,0-2.08,0-3.12,0-.33-.06-.49-.44-.48-1.11.02-2.22.02-3.34,0-.35,0-.46.11-.46.47.02,2.04.03,4.07,0,6.11,0,.46.16.58.59.57,1.02-.02,2.04-.02,3.06,0,.44.01.6-.11.58-.57-.04-.99-.01-1.99-.01-2.99Z"/>
      <path class="cls-2" d="m105.44,92.61c0,1.31,0,2.62,0,3.94,0,.83-.21,1.09-1.02,1.1-1.84.01-3.67-.03-5.51-.04-.47,0-.71-.25-.76-.69-.03-.31-.05-.63-.05-.95,0-2.44,0-4.89,0-7.33,0-.87.23-1.18,1.1-1.2,1.75-.04,3.49-.04,5.24,0,.72.01.99.36.99,1.1,0,1.36,0,2.71,0,4.07,0,0,.01,0,.02,0Zm-1.5-.06c0-1.02-.01-2.03,0-3.05,0-.34-.09-.48-.45-.47-1.15.02-2.31.02-3.46,0-.37,0-.45.13-.45.47.01,2.03.02,4.06,0,6.1,0,.45.18.51.56.51,1.09-.02,2.17-.03,3.26,0,.47.02.56-.16.55-.58-.03-.99,0-1.99,0-2.98Z"/>
      <path class="cls-2" d="m105.44,60.1c0,1.36,0,2.71,0,4.07,0,.78-.2.97-.96.98-1.84,0-3.67-.01-5.51,0-.48,0-.73-.18-.78-.64-.03-.25-.07-.49-.07-.74,0-2.53-.01-5.06,0-7.6,0-.9.16-1.12,1.05-1.15,1.77-.05,3.54-.06,5.3-.03.72.01.96.32.96,1.04,0,1.36,0,2.71,0,4.07h.01Zm-5.86-.01c0,1.02.01,2.03,0,3.05,0,.37.11.54.5.53,1.13-.02,2.27-.03,3.4-.03.36,0,.47-.14.47-.49-.01-2.06,0-4.11,0-6.17,0-.29-.06-.46-.41-.46-1.16,0-2.31,0-3.47-.03-.41,0-.49.19-.48.54.01,1.02,0,2.03,0,3.05Z"/>
      <path class="cls-2" d="m105.42,76.31c0,1.29,0,2.58,0,3.87,0,.99-.28,1.26-1.25,1.26-1.59,0-3.18,0-4.77,0-1,0-1.25-.2-1.27-1.16-.03-2.69-.02-5.38-.03-8.08,0-.62.33-.93.92-.94,1.84-.01,3.68-.02,5.51,0,.65,0,.9.41.89,1.03-.01,1.33,0,2.67,0,4Zm-1.49.01c0-.99-.02-1.99,0-2.98.01-.42-.08-.61-.55-.59-1.11.03-2.22.02-3.33,0-.41,0-.49.15-.48.52.01,2.03.02,4.07,0,6.1,0,.4.11.58.53.57,1.11-.03,2.22-.03,3.33-.03.37,0,.51-.14.5-.53-.02-1.02,0-2.03,0-3.05Z"/>
    </g>
  </g>
</svg>