<?xml version="1.0" encoding="UTF-8"?>
<svg id="Layer_2" data-name="Layer 2" xmlns="http://www.w3.org/2000/svg" viewBox="0 0 121.14 121.16">
  <defs>
    <style>
      .cls-1 {
        fill: #f2f2f2;
      }
    </style>
  </defs>
  <g id="Layer_1-2" data-name="Layer 1">
    <g>
      <path class="cls-1" d="m13.09,82.16l-4.59,1.48-3.91-11.96-3.71,1.21,3.91,11.94c.31,1,1.02,1.82,1.93,2.29.92.47,1.97.57,2.99.23l4.59-1.48c2.15,3.93,4.79,7.58,7.89,10.88l-2.83,3.91c-.63.84-.88,1.88-.72,2.89.16,1.04.72,1.95,1.56,2.58l9.48,6.88c.86.63,1.9.88,2.93.7,1.04-.16,1.93-.72,2.54-1.56l2.85-3.89c4.06,1.95,8.36,3.34,12.78,4.16v4.83c0,2.15,1.76,3.91,3.91,3.91h11.72c2.15,0,3.91-1.76,3.91-3.91v-4.83c4.42-.82,8.71-2.23,12.8-4.18l2.81,3.89c.61.86,1.5,1.41,2.54,1.58,1.06.18,2.09-.08,2.93-.7l9.48-6.88c.86-.63,1.41-1.54,1.56-2.58s-.1-2.05-.7-2.89l-2.81-3.93c3.09-3.26,5.74-6.92,7.87-10.88l4.59,1.5c1,.31,2.05.23,2.99-.23.94-.49,1.62-1.29,1.93-2.29l3.91-11.96-3.71-1.21-3.91,11.98-4.59-1.5c-1.76-.59-3.69.2-4.65,1.86-1.97,3.63-4.44,7.01-7.29,10.04-1.31,1.39-1.45,3.5-.33,4.98l2.83,3.91-9.48,6.88-2.85-3.93c-1.11-1.5-3.11-2.01-4.85-1.21-3.77,1.8-7.74,3.09-11.78,3.85-1.86.35-3.22,1.95-3.22,3.83v4.83h-11.72v-4.83c0-1.88-1.35-3.5-3.22-3.83-4.06-.76-8.03-2.05-11.82-3.87-1.72-.78-3.71-.29-4.83,1.23l-2.83,3.91-9.48-6.88,2.81-3.89c1.13-1.5,1-3.61-.33-5-2.85-3.03-5.31-6.41-7.31-10.08-.94-1.62-2.87-2.4-4.63-1.82l.06.04Z"/>
      <path class="cls-1" d="m60.57,101.6c18.03,0,33.76-11.55,39.14-28.72l-3.73-1.17c-4.87,15.53-19.09,25.99-35.42,25.99s-30.56-10.43-35.42-25.99l-3.73,1.17c5.37,17.17,21.1,28.72,39.14,28.72h.04Z"/>
      <rect class="cls-1" y="64.48" width="121.14" height="3.91"/>
      <path class="cls-1" d="m113.32,60.57v-27.35c0-1.07-.88-1.95-1.95-1.95h-15.63V1.95c0-1.07-.88-1.95-1.95-1.95h-23.45c-1.07,0-1.95.88-1.95,1.95v19.54h-15.63v-7.82c0-.59-.25-1.13-.7-1.5l-11.72-9.77c-.72-.61-1.78-.61-2.5,0l-11.72,9.77c-.45.37-.7.92-.7,1.5v15.63h-15.63c-1.07,0-1.95.88-1.95,1.95v29.31h3.91v-27.35h13.68v27.35h3.91V14.6l9.77-8.15,9.77,8.15v45.97h3.91V25.4h15.63v35.17h3.91V3.91h19.54v56.66h3.91v-25.4h13.68v25.4h3.91Z"/>
      <rect class="cls-1" x="76.2" y="9.77" width="3.91" height="3.91"/>
      <rect class="cls-1" x="84.02" y="9.77" width="3.91" height="3.91"/>
      <rect class="cls-1" x="76.2" y="19.54" width="3.91" height="3.91"/>
      <rect class="cls-1" x="84.02" y="19.54" width="3.91" height="3.91"/>
      <rect class="cls-1" x="76.2" y="29.31" width="3.91" height="3.91"/>
      <rect class="cls-1" x="84.02" y="29.31" width="3.91" height="3.91"/>
      <rect class="cls-1" x="33.22" y="17.58" width="11.72" height="3.91"/>
      <rect class="cls-1" x="33.22" y="27.35" width="11.72" height="3.91"/>
    </g>
  </g>
</svg>