<?xml version="1.0" encoding="UTF-8"?>
<svg id="Layer_2" data-name="Layer 2" xmlns="http://www.w3.org/2000/svg" viewBox="0 0 113.07 112.14">
  <defs>
    <style>
      .cls-1 {
        fill: #f2f2f2;
      }
    </style>
  </defs>
  <g id="Layer_1-2" data-name="Layer 1">
    <g>
      <path class="cls-1" d="m56.6,112.13c-17.99,0-35.98,0-53.98,0-.32,0-.65,0-.97,0-1.02-.04-1.69-.66-1.66-1.52.03-.75.73-1.36,1.65-1.38.89-.02,1.79,0,2.68,0q1,0,1-.98c0-20.52,0-41.04,0-61.56,0-2.31.32-2.62,2.68-2.62,5.79,0,11.58,0,17.37,0,1.75,0,1.58.19,1.58-1.53,0-9.41.03-18.82-.02-28.23,0-1.43.45-2.49,1.43-3.48,4.79-4.82,10.55-7.88,17.14-9.49C48.99.48,52.52.01,56.12,0c1.38,0,1.93.54,1.94,1.93,0,5.49.02,10.99-.01,16.48,0,.75.2.97.96.96,5.57-.03,11.13-.02,16.7-.02.94,0,.93,0,.93-.95,0-1.65,0-3.3-.01-4.95-.01-.79.24-1.42.87-1.93,4.46-3.62,8.91-7.25,13.37-10.86,1.06-.86,1.48-.83,2.57.02,4.57,3.57,9.04,7.25,13.53,10.91.59.48.77,1.09.76,1.83-.01,8.35,0,16.7,0,25.05,0,23.25,0,46.51-.01,69.76,0,1,0,1,.98,1,.92,0,1.84-.01,2.76,0,.96.02,1.61.64,1.62,1.48,0,.78-.66,1.38-1.59,1.42-.27.01-.55,0-.82,0-18.02,0-36.03,0-54.05,0Zm-1.59-55.97h-.01c0-16.58,0-33.15,0-49.73,0-.96.01-1.92.02-2.88,0-.4-.1-.66-.61-.6-1.99.24-4.01.32-5.99.69-6.66,1.25-12.51,4.06-17.47,8.68-.82.76-1.12,1.55-1.12,2.65.03,30.59.03,61.19.03,91.78,0,.59.02,1.18,0,1.77-.02.51.2.71.71.7,1.17-.02,2.34-.04,3.5,0,.71.03.94-.18.93-.91-.03-3.65-.02-7.29-.01-10.94,0-1.32.47-1.83,1.78-1.99.27-.03.55-.04.82-.04,3.33,0,6.66,0,9.99,0,.37,0,.74.05,1.11.1.68.09,1.07.51,1.21,1.14.09.38.1.78.1,1.17,0,3.45,0,6.9,0,10.35q0,1.1,1.15,1.1c.62,0,1.24.02,1.86,0,.64-.02,1.44.27,1.87-.14.4-.38.1-1.17.1-1.77,0-17.05,0-34.09,0-51.14Zm3.04,9.69s-.02,0-.03,0c0,14.23,0,28.47-.01,42.7,0,.49.16.67.63.67,5.76,0,11.53,0,17.29,0,.5,0,.74-.18.71-.7-.02-.54-.02-1.08-.02-1.63,0-27.83,0-55.66,0-83.49,0-1.01,0-1.02-1.03-1.02-5.52,0-11.03,0-16.55,0q-.99,0-.99.98c0,14.16,0,28.32,0,42.48Zm21.6-24.21h0c0,8.67,0,17.34,0,26,0,.39,0,.79-.01,1.18-.04.98-.05.98.94.98,7.7,0,15.4-.01,23.1-.02q1.1,0,1.1-1.11c0-18.05,0-36.1.01-54.15,0-.65-.2-1.08-.71-1.5-3.77-3.05-7.52-6.13-11.26-9.22-.47-.39-.76-.41-1.25,0-3.7,3.06-7.41,6.11-11.15,9.12-.56.45-.8.89-.8,1.61.02,9.04.01,18.07.01,27.11ZM8.27,78.1c0,10.08,0,20.15-.01,30.23,0,.72.21.92.93.91,5.64-.03,11.28-.02,16.92,0,.64,0,.87-.19.87-.84-.02-20.13-.02-40.25,0-60.38,0-.76-.23-.95-.98-.95-5.57.03-11.13.01-16.7,0q-1.02,0-1.02,1.02c0,10,0,20,0,30Zm96.51,12.94c0-5.74,0-11.48,0-17.22,0-1.01,0-1.02-1.02-1.02-7.7,0-15.41,0-23.11,0-.99,0-1,0-1,.98,0,6.45.02,12.91-.01,19.36-.02,5.1.13,10.2-.09,15.29-.03.58.19.8.77.79,1.14-.02,2.29-.04,3.43,0,.72.03.94-.22.93-.93-.03-3.5-.01-7,0-10.49,0-1.94.51-2.45,2.47-2.45,3.43,0,6.86,0,10.29,0,.37,0,.74.04,1.11.12.63.13.99.54,1.08,1.17.04.32.04.64.04.96,0,3.55-.01,7.09-.02,10.64,0,.96.02.98,1.02.98,1.04,0,2.09,0,3.13,0q.99,0,.99-.96c0-5.74,0-11.48,0-17.22Zm-8.04,12.77h0c0-1.58,0-3.15,0-4.73,0-.49-.17-.71-.69-.71-2.58.01-5.17,0-7.75,0-.51,0-.7.18-.7.69.02,3.15.02,6.31,0,9.46,0,.56.2.72.74.72,2.51-.02,5.02-.03,7.53,0,.7,0,.9-.26.89-.92-.04-1.5-.01-3.01-.01-4.51Zm-58.8-.07h0c0,1.58.02,3.15,0,4.73-.01.58.21.77.79.77,2.48-.02,4.97-.02,7.45,0,.57,0,.79-.16.78-.75-.02-3.13-.03-6.26,0-9.38,0-.55-.19-.73-.73-.72-2.51.02-5.02.02-7.53,0-.61,0-.76.23-.75.79.03,1.53,0,3.05,0,4.58Z"/>
      <path class="cls-1" d="m48.53,71.76c0,.86.02,1.72,0,2.58-.02.91-.63,1.55-1.44,1.57-.83.02-1.45-.59-1.47-1.53-.03-1.75-.02-3.49,0-5.24.02-.96.6-1.57,1.42-1.59.84-.02,1.43.61,1.47,1.62.03.86,0,1.72,0,2.58h.01Z"/>
      <path class="cls-1" d="m48.53,47.99c0,.86.02,1.72,0,2.58-.02.88-.5,1.38-1.29,1.42-.92.06-1.56-.36-1.59-1.26-.07-1.91-.06-3.84,0-5.75.03-.84.63-1.27,1.46-1.24.76.03,1.34.55,1.38,1.37.05.96.01,1.92.01,2.88,0,0,.01,0,.02,0Z"/>
      <path class="cls-1" d="m36.79,47.9c0-.86-.01-1.72,0-2.58.02-.89.57-1.51,1.36-1.56.79-.05,1.43.42,1.5,1.31.15,1.94.12,3.88.02,5.82-.04.76-.74,1.2-1.56,1.15-.73-.04-1.29-.57-1.32-1.34-.03-.93,0-1.87,0-2.8h0Z"/>
      <path class="cls-1" d="m39.72,71.82c0,.84.02,1.67,0,2.51-.03.93-.62,1.54-1.46,1.55-.79.01-1.44-.64-1.46-1.56-.03-1.72-.02-3.44,0-5.17,0-.92.6-1.56,1.41-1.59.77-.03,1.42.55,1.48,1.45.06.93.01,1.87.01,2.8,0,0,.01,0,.02,0Z"/>
      <path class="cls-1" d="m36.79,83.87c0-.86-.01-1.72,0-2.58.02-.88.65-1.57,1.44-1.59.74-.02,1.41.55,1.44,1.4.06,1.86.06,3.73.02,5.6-.02.81-.72,1.36-1.5,1.32-.79-.03-1.38-.62-1.4-1.43-.02-.91,0-1.82,0-2.73Z"/>
      <path class="cls-1" d="m48.53,35.78c0,.81.01,1.62,0,2.44-.02,1.01-.61,1.67-1.49,1.68-.89,0-1.42-.56-1.43-1.61-.02-1.7-.01-3.4.01-5.09.01-.92.62-1.59,1.41-1.61.8-.02,1.46.67,1.49,1.62.03.86,0,1.72,0,2.58h0Z"/>
      <path class="cls-1" d="m48.52,23.7c0,.84.02,1.67,0,2.51-.03.93-.62,1.51-1.47,1.53-.79.02-1.42-.58-1.43-1.48-.03-1.77-.03-3.54,0-5.32.02-.94.58-1.49,1.4-1.5.82-.01,1.44.59,1.48,1.52.04.91,0,1.82,0,2.73,0,0,0,0,.01,0Z"/>
      <path class="cls-1" d="m36.79,23.59c0-.86-.01-1.72,0-2.58.02-.85.56-1.46,1.32-1.52.83-.07,1.45.35,1.53,1.26.17,1.94.13,3.89.03,5.83-.04.77-.76,1.23-1.54,1.17-.73-.05-1.3-.59-1.33-1.35-.03-.93,0-1.87,0-2.81,0,0,0,0,0,0Z"/>
      <path class="cls-1" d="m48.52,60.09c0,.83.02,1.67,0,2.5-.03.94-.62,1.55-1.44,1.56-.83.01-1.43-.58-1.45-1.54-.04-1.74-.03-3.49,0-5.23.01-.91.58-1.5,1.38-1.52.83-.02,1.46.57,1.51,1.49.05.91,0,1.82,0,2.73,0,0,0,0,.01,0Z"/>
      <path class="cls-1" d="m36.79,60c0-.84-.02-1.67,0-2.51.02-.95.59-1.58,1.39-1.61.8-.03,1.47.57,1.5,1.51.05,1.77.05,3.54.01,5.31-.02.89-.64,1.43-1.48,1.43-.82,0-1.39-.57-1.42-1.48-.03-.88,0-1.77,0-2.65Z"/>
      <path class="cls-1" d="m36.79,35.69c0-.84-.02-1.67,0-2.51.02-.94.54-1.52,1.34-1.56.84-.04,1.5.5,1.54,1.46.06,1.82.06,3.64.02,5.46-.02.84-.67,1.34-1.5,1.32-.75-.01-1.35-.57-1.39-1.36-.04-.93,0-1.87,0-2.81,0,0,0,0,0,0Z"/>
      <path class="cls-1" d="m48.52,83.91c0,.84.02,1.67,0,2.51-.03.95-.61,1.56-1.43,1.58-.8.01-1.45-.62-1.46-1.55-.03-1.72-.03-3.44,0-5.16.02-.98.6-1.57,1.43-1.58.83-.01,1.42.62,1.46,1.63.03.86,0,1.72,0,2.58h0Z"/>
      <path class="cls-1" d="m72.08,88.53c0,.83.02,1.4,0,1.96-.04.82-.61,1.42-1.38,1.5-.75.08-1.48-.41-1.58-1.24-.18-1.39-.19-2.8.01-4.19.1-.72.74-1.22,1.4-1.2.72.02,1.21.4,1.43,1.09.25.77.08,1.57.12,2.08Z"/>
      <path class="cls-1" d="m72.08,46.64c0,.59.03,1.18,0,1.77-.05.87-.63,1.44-1.46,1.49-.77.04-1.38-.39-1.5-1.25-.19-1.37-.17-2.75,0-4.12.1-.81.71-1.25,1.51-1.22.75.02,1.37.56,1.43,1.34.06.66.01,1.33.01,1.99,0,0,0,0,.01,0Z"/>
      <path class="cls-1" d="m72.08,36.18c0,.59.03,1.18,0,1.77-.05.82-.64,1.39-1.43,1.44-.74.04-1.44-.44-1.54-1.22-.17-1.39-.17-2.8.01-4.19.1-.75.69-1.18,1.39-1.2.69-.02,1.23.39,1.47,1.13.03.09.07.19.07.28,0,.66,0,1.33,0,1.99,0,0,.01,0,.02,0Z"/>
      <path class="cls-1" d="m72.08,57.12c0,.59.03,1.18,0,1.77-.06.93-.64,1.5-1.49,1.52-.84.02-1.48-.53-1.53-1.47-.06-1.22-.06-2.45,0-3.68.05-.92.71-1.48,1.55-1.46.82.03,1.43.66,1.47,1.55.03.59,0,1.18,0,1.77,0,0,0,0,0,0Z"/>
      <path class="cls-1" d="m69.06,78.21c0-.64-.05-1.28.01-1.91.09-.92.61-1.41,1.4-1.43.76-.02,1.47.55,1.56,1.4.14,1.3.11,2.6.02,3.9-.06.78-.81,1.35-1.54,1.32-.71-.03-1.37-.6-1.44-1.36-.06-.63-.01-1.28-.01-1.91,0,0,0,0,0,0Z"/>
      <path class="cls-1" d="m72.08,99.21c0,.59.03,1.18,0,1.77-.05.91-.65,1.5-1.49,1.54-.75.03-1.4-.48-1.49-1.36-.14-1.32-.16-2.65.02-3.97.12-.85.67-1.27,1.47-1.27.78,0,1.37.55,1.49,1.37.01.07.02.15.02.22,0,.56,0,1.13,0,1.69,0,0,0,0,0,0Z"/>
      <path class="cls-1" d="m72.08,67.7c0,.59.03,1.18,0,1.77-.06.85-.63,1.4-1.42,1.43-.88.03-1.49-.42-1.58-1.32-.13-1.27-.11-2.56-.02-3.84.06-.83.72-1.4,1.46-1.41.73,0,1.43.57,1.52,1.37.07.66.01,1.33.01,1.99,0,0,.02,0,.03,0Z"/>
      <path class="cls-1" d="m65.52,88.74c0,.59.03,1.18,0,1.77-.05.84-.64,1.41-1.42,1.43-.79.02-1.42-.5-1.46-1.37-.06-1.25-.06-2.51,0-3.77.03-.84.68-1.42,1.44-1.4.76.01,1.39.59,1.45,1.42.05.64,0,1.28,0,1.92h0Z"/>
      <path class="cls-1" d="m65.52,46.7c0,.57.03,1.13,0,1.7-.05.86-.66,1.45-1.47,1.48-.7.03-1.36-.52-1.4-1.36-.07-1.3-.07-2.61,0-3.91.03-.78.72-1.31,1.46-1.29.71.02,1.34.6,1.4,1.38.05.66.01,1.33.01,1.99,0,0,0,0,0,0Z"/>
      <path class="cls-1" d="m62.61,99.17c0-.59-.03-1.18,0-1.77.05-.88.66-1.47,1.46-1.47.77,0,1.42.63,1.45,1.49.03,1.18.04,2.36,0,3.54-.03.91-.69,1.53-1.51,1.52-.75-.01-1.32-.59-1.38-1.47-.05-.61,0-1.23,0-1.84,0,0,0,0-.01,0Z"/>
      <path class="cls-1" d="m65.52,36.11c0,.59.03,1.18,0,1.77-.05.87-.68,1.48-1.47,1.48-.77,0-1.38-.55-1.42-1.43-.05-1.23-.05-2.46,0-3.69.03-.85.63-1.42,1.41-1.43.75-.02,1.37.56,1.48,1.38,0,.05.01.1.01.15,0,.59,0,1.18,0,1.77,0,0,0,0,0,0Z"/>
      <path class="cls-1" d="m65.53,57.1c0,.56.03,1.13,0,1.69-.06.94-.71,1.6-1.53,1.58-.75-.02-1.34-.64-1.37-1.56-.04-1.18-.04-2.36,0-3.53.03-.85.63-1.44,1.38-1.45.79,0,1.49.66,1.52,1.5.02.59,0,1.18,0,1.77Z"/>
      <path class="cls-1" d="m62.61,67.6c0-.59-.02-1.18,0-1.77.04-.86.61-1.44,1.38-1.46.73-.01,1.47.58,1.51,1.36.06,1.25.06,2.51-.01,3.76-.05.88-.78,1.45-1.54,1.39-.76-.06-1.27-.63-1.33-1.51-.02-.29-.01-.59-.02-.89,0-.3,0-.59,0-.89,0,0,0,0,.01,0Z"/>
      <path class="cls-1" d="m65.52,78.23c0,.57.03,1.13,0,1.7-.05.88-.64,1.45-1.46,1.46-.86.01-1.4-.49-1.43-1.45-.04-1.18-.04-2.36,0-3.54.03-.93.6-1.48,1.42-1.47.82,0,1.42.58,1.47,1.46.04.61,0,1.23,0,1.84Z"/>
      <path class="cls-1" d="m95.24,47.86c0-.84,0-1.67,0-2.51.01-.95.62-1.65,1.43-1.67.92-.02,1.49.59,1.52,1.62.04,1.52.08,3.05.11,4.57,0,.34-.01.69-.09,1.02-.18.77-.83,1.23-1.58,1.18-.76-.06-1.33-.61-1.36-1.41-.04-.93,0-1.87,0-2.81,0,0,0,0,0,0Z"/>
      <path class="cls-1" d="m98.3,22.44c0,1.18.02,2.36,0,3.54-.03,1.1-.55,1.71-1.41,1.75-.89.04-1.59-.48-1.61-1.37-.05-1.87-.04-3.74,0-5.61.02-.77.74-1.37,1.5-1.36.77,0,1.37.59,1.41,1.42.03.54,0,1.08,0,1.63.04,0,.08,0,.11,0Z"/>
      <path class="cls-1" d="m95.25,35.71c0-.86-.02-1.72,0-2.58.02-.92.64-1.58,1.43-1.59.85,0,1.47.64,1.5,1.59.05,1.67-.03,3.34.06,5.01.06,1.1-.6,1.79-1.54,1.78-.89-.01-1.44-.68-1.45-1.78,0-.81,0-1.62,0-2.43h0Z"/>
      <path class="cls-1" d="m98.2,59.97c0,.96.05,1.91-.01,2.87-.05.87-.66,1.39-1.44,1.38-.85,0-1.48-.61-1.5-1.51-.02-1.79-.02-3.59,0-5.38.01-.86.65-1.46,1.45-1.46.8,0,1.43.59,1.46,1.45.03.88,0,1.77,0,2.65,0,0,.02,0,.03,0Z"/>
      <path class="cls-1" d="m89.39,60.1c0,.84.02,1.68,0,2.51-.03.91-.51,1.44-1.32,1.5-.9.06-1.46-.34-1.54-1.32-.14-1.84-.12-3.69-.01-5.54.05-.85.72-1.4,1.48-1.37.73.03,1.33.62,1.38,1.48.05.91.01,1.82.01,2.73,0,0,0,0,0,0Z"/>
      <path class="cls-1" d="m89.39,23.58c0,.84.01,1.67,0,2.51-.02.94-.58,1.59-1.38,1.63-.81.05-1.46-.53-1.5-1.49-.06-1.77-.06-3.55-.02-5.32.02-.92.63-1.43,1.48-1.41.82.02,1.39.59,1.42,1.49.03.86,0,1.72,0,2.59h0Z"/>
      <path class="cls-1" d="m89.39,47.87c0,.84.02,1.67,0,2.51-.02.96-.58,1.57-1.4,1.6-.86.03-1.45-.49-1.48-1.49-.06-1.77-.06-3.54-.02-5.32.02-.9.68-1.45,1.49-1.42.79.03,1.38.64,1.4,1.52.03.86,0,1.72,0,2.58h0Z"/>
      <path class="cls-1" d="m89.39,35.77c0,.84.02,1.67,0,2.51-.02.94-.59,1.55-1.43,1.57-.81.03-1.42-.49-1.45-1.45-.06-1.77-.06-3.54,0-5.31.03-.93.71-1.52,1.52-1.48.74.03,1.33.69,1.36,1.58.03.86,0,1.72,0,2.58Z"/>
      <path class="cls-1" d="m19.38,77.91c.03-.46-.09-1.23.1-1.99.18-.71.66-1.01,1.35-1.03.69-.02,1.3.41,1.41,1.08.23,1.39.25,2.8.06,4.19-.12.84-.81,1.36-1.54,1.3-.78-.07-1.32-.62-1.38-1.49-.04-.59,0-1.18,0-2.07Z"/>
      <path class="cls-1" d="m19.38,57.05c0-.59-.04-1.18,0-1.77.07-.92.65-1.46,1.47-1.46.76,0,1.3.54,1.43,1.42.17,1.18.14,2.36.08,3.54-.05,1.02-.58,1.56-1.41,1.61-.75.04-1.28-.34-1.49-1.07-.21-.75-.08-1.52-.1-2.28Z"/>
      <path class="cls-1" d="m22.39,88.86c-.01.64.07,1.28-.09,1.91-.19.74-.8,1.24-1.49,1.22-.73-.02-1.31-.51-1.39-1.29-.13-1.32-.12-2.66,0-3.98.08-.82.72-1.36,1.42-1.34.75.02,1.33.59,1.44,1.43.04.34.08.68.1,1.03.02.34,0,.69,0,1.03Z"/>
      <path class="cls-1" d="m19.38,99.12c0-.56-.04-1.13,0-1.69.08-.92.65-1.49,1.43-1.5.84,0,1.35.54,1.48,1.51.13,1,.09,2.01.09,3.01,0,.24-.04.49-.09.73-.17.8-.77,1.33-1.46,1.33-.75,0-1.29-.48-1.4-1.34-.09-.68-.07-1.37-.1-2.05.02,0,.03,0,.05,0Z"/>
      <path class="cls-1" d="m19.41,67.62c0-.73-.14-1.48.06-2.2.19-.68.74-1.08,1.42-1.06.69.02,1.25.46,1.35,1.15.19,1.37.26,2.74.05,4.11-.13.81-.71,1.28-1.48,1.27-.72,0-1.3-.49-1.39-1.28-.07-.66-.01-1.32-.01-1.99Z"/>
      <path class="cls-1" d="m15.85,78.07c0,.74.02,1.28,0,1.82-.05.92-.73,1.62-1.52,1.59-.85-.03-1.29-.58-1.41-1.57-.15-1.23.05-2.46.03-3.69-.01-.78.49-1.26,1.22-1.32.78-.06,1.36.34,1.56,1.07.2.75.1,1.52.13,2.08Z"/>
      <path class="cls-1" d="m15.84,67.72c0,.56.04,1.13,0,1.69-.08.95-.67,1.5-1.52,1.48-.86-.01-1.3-.55-1.39-1.56-.11-1.18-.08-2.35,0-3.53.06-.85.57-1.38,1.31-1.44.77-.06,1.33.43,1.53,1.3.15.68.06,1.37.08,2.06Z"/>
      <path class="cls-1" d="m15.85,57.09c0,.71.03,1.22,0,1.74-.06,1.03-.67,1.61-1.58,1.57-.84-.04-1.28-.62-1.35-1.61-.08-1.15.03-2.3.02-3.45-.01-.83.56-1.44,1.32-1.5.72-.05,1.29.43,1.49,1.25.18.73.07,1.47.11,2.01Z"/>
      <path class="cls-1" d="m12.93,99.21c0-.64-.02-1.28,0-1.92.02-.72.53-1.25,1.24-1.35.69-.1,1.37.29,1.51,1.01.29,1.48.29,2.99.02,4.47-.13.72-.91,1.18-1.57,1.08-.72-.11-1.19-.67-1.21-1.44-.01-.61,0-1.23,0-1.84,0,0,0,0,0,0Z"/>
      <path class="cls-1" d="m15.82,88.75c0,.61.06,1.23-.01,1.84-.13,1.02-1.03,1.6-1.91,1.3-.59-.2-.96-.59-.96-1.25,0-1.25-.01-2.51,0-3.76.01-.85.51-1.39,1.27-1.45.77-.06,1.33.37,1.54,1.19.18.7.08,1.42.07,2.13Z"/>
    </g>
  </g>
</svg>