<?xml version="1.0" encoding="UTF-8"?>
<svg id="Layer_2" data-name="Layer 2" xmlns="http://www.w3.org/2000/svg" viewBox="0 0 114.17 114.17">
  <defs>
    <style>
      .cls-1 {
        fill: #f2f2f2;
      }
    </style>
  </defs>
  <g id="Layer_1-2" data-name="Layer 1">
    <g>
      <path class="cls-1" d="m57.16,114.15c-12.85,0-25.7,0-38.55,0-5.4,0-10.8.01-16.2.02-1.39,0-2.01-.36-2.3-1.33-.28-.96.22-1.84,1.18-2.1.81-.22,1.64-.13,2.45-.1.62.02.74-.19.74-.77-.02-8.51-.02-17.02-.02-25.52,0-5.31,0-10.62.02-15.94,0-.32-.1-.51-.37-.68C1.55,66.1.12,63.76.04,60.71c-.08-3.04-.03-6.09-.02-9.13,0-.34.08-.69.19-1.01,2.14-6.51,4.22-13.04,6.52-19.49.49-1.38.95-1.7,2.45-1.7,5.72,0,11.45-.02,17.17,0,.59,0,.75-.17.78-.76.28-6.75,2.72-12.65,7-17.86,1.76-2.14,3.82-3.9,6.07-5.5,4.01-2.84,8.51-4.37,13.31-5.01,4.88-.66,9.66-.01,14.24,1.78,9.4,3.68,15.41,10.48,18.26,20.11.63,2.11.96,4.29,1.02,6.5.01.61.22.75.79.75,5.66-.02,11.32,0,16.98,0,1.79,0,2.14.23,2.73,1.94,1.95,5.66,3.8,11.36,5.71,17.04.7,2.07.98,4.12.92,6.27-.06,2.05.05,4.11-.06,6.15-.16,2.96-1.5,5.31-4.03,6.92-.32.2-.44.44-.44.79.01.99.02,1.99.02,2.98,0,12.61,0,25.22,0,37.83q0,1.33,1.36,1.31c.45,0,.91-.02,1.36,0,1.03.05,1.72.75,1.74,1.72.01.98-.65,1.72-1.68,1.77-1.23.05-2.46.03-3.69.03-17.19,0-34.39,0-51.58,0h0Zm16.83-3.51v-.02c10.43,0,20.87,0,31.3.02.68,0,.81-.2.81-.83-.02-7.75-.03-15.5-.01-23.26.01-5.66-.09-11.32.07-16.97.01-.5-.2-.55-.61-.56-2.57-.08-4.82-.92-6.55-2.89-.37-.42-.54-.36-.87,0-3.22,3.64-9.62,4.07-13.07-.19-.29-.35-.41-.26-.67.03-.72.78-1.51,1.49-2.44,2.01-2.93,1.61-7.29,1.55-10.25-1.54-.25-.26-.49-.68-.78-.72-.35-.05-.49.47-.73.73-3.41,3.53-9.17,3.4-12.67-.31-.33-.35-.48-.47-.86-.03-3.28,3.73-9.61,4.06-13.06-.14-.28-.34-.41-.35-.71,0-3.25,3.81-9.1,4.12-12.59.56-.28-.29-.58-.56-.87-.85-.28.29-.55.59-.84.87-3.19,3.2-9.1,3.5-12.61-.48-.32-.36-.46-.34-.77,0-1.74,1.95-3.97,2.84-6.54,2.93-.55.02-.67.17-.67.7.02,13.45.03,26.91.02,40.36,0,.45.11.6.58.59,1.4-.04,2.81-.06,4.21-.01.63.02.73-.19.73-.75-.02-9.44-.01-18.87-.01-28.31,0-1.94.63-2.57,2.56-2.57,2.76,0,5.53,0,8.29,0,5.12,0,10.24,0,15.36,0,1.49,0,2.16.65,2.16,2.04,0,9.63,0,19.26-.01,28.89,0,.53.13.71.68.71,10.48-.02,20.95-.01,31.43-.01Zm-16.96-54.2c14.08.21,26.25-11.16,26.48-26.09.23-15.08-12.01-26.7-26.42-26.79-14.76-.09-26.08,12.31-26.5,25.59-.45,14.37,11.33,27.49,26.44,27.28Zm-18.62,40.13h-.02c0-4.45-.01-8.89.01-13.34,0-.52-.11-.65-.64-.65-6.37.02-12.74,0-19.11,0-1.51,0-1.52,0-1.52,1.48,0,8.61,0,17.23-.02,25.84,0,.53.16.65.66.64,1.16-.04,2.33,0,3.5-.01,5.51,0,11.01-.02,16.52-.01.46,0,.63-.1.63-.61-.02-4.45-.01-8.89-.01-13.34Zm41.42-46.98c.32.01.49.03.66.03,9.59,0,19.18-.01,28.77,0,.61,0,.6-.18.44-.66-1.74-5.19-3.47-10.38-5.18-15.58-.13-.38-.29-.48-.68-.48-5.31.02-10.63.02-15.94.02-1.14,0-.94-.25-1.12,1.01-.67,4.61-2.15,8.91-4.77,12.79-.65.96-1.38,1.85-2.18,2.87Zm-45.63-.04c0-.05,0-.1-.02-.13-.07-.11-.15-.21-.23-.31-3.68-4.42-5.71-9.54-6.6-15.17-.16-1.02-.17-1.02-1.17-1.02-5.23,0-10.45.01-15.68,0-.48,0-.74.12-.87.62-.2.77-.49,1.52-.75,2.27-1.47,4.37-2.94,8.74-4.42,13.11-.24.71-.26.7.49.7,9.48-.01,18.96-.02,28.45-.04.27,0,.55.16.81-.04Zm-25.46,3.72c-1.55,0-3.11,0-4.66,0-.37,0-.55.06-.54.49.02,2.24-.04,4.49.03,6.73.08,2.88,2.42,5.06,5.27,5.03,2.74-.03,4.91-2.21,4.97-5.09.04-2.2,0-4.4.01-6.6,0-.48-.18-.57-.61-.56-1.49.02-2.98,0-4.47,0Zm96.82.02c-1.53,0-3.06.01-4.6,0-.44,0-.61.11-.6.58.02,2.16-.05,4.32,0,6.47.08,2.94,2.33,5.17,5.13,5.17,2.85,0,5.05-2.16,5.13-5.14.06-2.18-.02-4.36,0-6.54,0-.49-.18-.56-.61-.55-1.49.03-2.98,0-4.47,0Zm-13.91,0h0c-1.45.01-2.9.06-4.34-.01-.63-.03-.7.16-.69.69.03,1.45,0,2.89.01,4.34,0,1.01-.09,2.04.04,3.04.32,2.45,2.77,4.3,5.38,4.16,2.51-.13,4.63-2.18,4.7-4.66.06-2.37,0-4.75.01-7.12,0-.4-.18-.45-.51-.45-1.53.01-3.07,0-4.6,0Zm-69.13,0h0c-1.51,0-3.02.02-4.53,0-.4,0-.57.1-.57.54.01,2.2-.04,4.4,0,6.6.05,2.71,2,4.76,4.7,5.04,2.64.27,5.3-1.79,5.39-4.29.09-2.5.02-5.01.03-7.51,0-.31-.1-.39-.42-.39-1.53.02-3.07,0-4.6,0Zm60.38,4.03s.01,0,.02,0c0-1.14-.03-2.29.01-3.43.02-.49-.11-.63-.6-.63-1.9.02-3.8,0-5.7-.02-.45,0-.83.12-1.2.4-.76.57-1.53,1.12-2.32,1.64-.33.22-.45.47-.45.85.02,1.4,0,2.8.02,4.21.02,1.5.59,2.79,1.69,3.79,1.54,1.4,3.37,1.7,5.3.97,1.89-.72,3.02-2.15,3.21-4.17.11-1.2.02-2.41.02-3.62Zm-51.65-.05s0,0,0,0c0,1.21-.08,2.42.02,3.62.21,2.59,2.5,4.63,5.07,4.59,2.67-.03,4.9-2.03,5.07-4.66.11-1.65.05-3.32.08-4.98,0-.3-.2-.4-.4-.53-.82-.55-1.65-1.11-2.45-1.68-.31-.22-.63-.34-1.02-.34-1.96,0-3.93.01-5.89,0-.38,0-.48.13-.48.49.01,1.17,0,2.33,0,3.5Zm18.99,8.24c2.68.01,4.78-2,5.07-4.81.06-.58-.09-.8-.69-.85-3.12-.24-6.12-.98-9-2.2-.47-.2-.49,0-.49.38.02.8.06,1.6.01,2.39-.17,2.91,2.46,5.07,5.09,5.08Zm18.78-5.88c0-.52-.03-1.04,0-1.55.03-.47-.07-.54-.53-.36-2.82,1.12-5.72,1.89-8.76,2.13-.95.08-.99.1-.85,1.05.33,2.21,1.55,3.73,3.7,4.37,2.01.59,3.8.08,5.23-1.48,1.08-1.17,1.35-2.62,1.19-4.16Z"/>
      <path class="cls-1" d="m73.94,74.5c8.01,0,16.03,0,24.04,0,.28,0,.56,0,.84.04,1.11.14,1.74.8,1.8,1.92.01.22,0,.43,0,.65,0,8.4,0,16.8,0,25.2,0,2.32-.52,2.84-2.87,2.84-7.6,0-15.21,0-22.81,0-8.32,0-16.63,0-24.95,0-.13,0-.26,0-.39,0-1.62-.03-2.24-.64-2.24-2.25,0-4.06,0-8.12,0-12.18,0-4.56,0-9.11,0-13.67,0-1.98.57-2.56,2.53-2.56,8.01,0,16.03,0,24.04,0h0Zm.12,3.58h0c-4.49,0-8.98,0-13.47,0-.48,0-.61.11-.61.62.02,7.47.01,14.94,0,22.4,0,.35.06.49.46.49,9.02,0,18.05,0,27.07,0,.42,0,.56-.1.55-.54-.02-7.47-.02-14.94-.02-22.4,0-.45-.11-.58-.58-.58-4.47.02-8.94.01-13.41.01Zm-17.62,11.76c.04-3.71.08-7.42,0-11.14-.01-.53-.16-.65-.66-.63-1.38.04-2.76.04-4.14,0-.54-.02-.69.15-.69.68,0,6.43-.02,12.86-.04,19.29,0,1.04.02,2.07.01,3.11,0,.33.1.45.45.44,1.49-.02,2.98-.03,4.47,0,.49,0,.61-.14.61-.62-.02-3.71-.01-7.42-.01-11.14Zm40.56-.02h0c0-3.73,0-7.47,0-11.2,0-.4-.06-.55-.52-.54-1.42.04-2.85.03-4.27,0-.47,0-.63.1-.63.61.02,7.47.01,14.93,0,22.4,0,.41.13.5.52.5,1.45-.02,2.89-.03,4.34.02.46.02.58-.05.57-.52-.02-3.76-.01-7.51-.01-11.27Z"/>
      <path class="cls-1" d="m41.59,20.49c-.54,0-1.08.04-1.62,0-.99-.1-1.56-.76-1.56-1.73,0-.97.54-1.65,1.53-1.75.81-.08,1.64-.04,2.46-.05.63,0,1.25-.02,1.88,0,1.18.01,1.73.4,2.13,1.51.29.81.57,1.63.81,2.45.12.41.29.59.76.58,8.44-.02,16.89-.02,25.33-.02.45,0,.91,0,1.34.17.91.37,1.28,1.29.89,2.38-1.04,2.88-1.98,5.79-3.13,8.63-.34.84-.62,1.7-.98,2.53-.19.43-.08.64.3.88,1.58,1.03,2.56,2.46,2.86,4.35.53,3.27-1.95,6.65-5.24,7.1-2.93.41-5.66-1.13-6.76-3.87-.18-.45-.42-.56-.86-.55-1.64.02-3.28.02-4.92,0-.38,0-.55.09-.7.46-.97,2.42-3.33,4.04-5.82,4.04-2.56,0-4.86-1.54-5.85-3.99-1.15-2.86-.05-5.93,2.39-7.5.91-.59.91-.61.63-1.64-1.15-4.13-2.21-8.29-3.51-12.38-.04-.12-.08-.25-.12-.37q-.45-1.28-1.81-1.23c-.15,0-.3,0-.45,0v-.02Zm18.38,4.48c-3.63,0-7.25,0-10.88,0-.35,0-.67-.02-.51.51.87,3.07,1.73,6.13,2.58,9.2.08.27.22.45.51.51,2.18.47,3.63,1.81,4.46,3.83.15.37.36.46.73.45,1.66-.02,3.32-.02,4.99.01.42,0,.57-.15.74-.52.88-1.98,2.29-3.38,4.49-3.8.56-.11.83-.35,1.03-.92,1-2.82,2.07-5.61,3.12-8.42.32-.85.31-.86-.57-.86-3.56,0-7.12,0-10.68,0Zm8.4,13.59c-1.54-.04-2.71,1.13-2.73,2.74-.03,1.5,1.15,2.68,2.7,2.72,1.48.04,2.68-1.11,2.72-2.61.04-1.63-1.07-2.81-2.69-2.85Zm-15.44,2.8c0-1.61-1.13-2.79-2.67-2.79-1.53,0-2.71,1.14-2.72,2.62,0,1.57,1.26,2.84,2.84,2.83,1.49,0,2.56-1.12,2.55-2.66Z"/>
      <path class="cls-1" d="m22.58,95.45c0-.43-.03-.87,0-1.29.09-.89.75-1.5,1.63-1.54.84-.04,1.62.53,1.77,1.39.17.94.17,1.89.06,2.83-.11.91-.95,1.58-1.79,1.55-.96-.04-1.61-.69-1.68-1.7-.03-.41,0-.82,0-1.23h.01Z"/>
    </g>
  </g>
</svg>